Coda-Regular.ufo
<glyph name="exclam" format="1">
  <advance width="519"/>
  <unicode hex="0021"/>
  <outline>
    <contour>
      <point x="259" y="498" type="curve" smooth="yes"/>
      <point x="271" y="498"/>
      <point x="285" y="503"/>
      <point x="288" y="534" type="curve" smooth="yes"/>
      <point x="323" y="917"/>
      <point x="367" y="1386"/>
      <point x="367" y="1418" type="curve" smooth="yes"/>
      <point x="367" y="1510"/>
      <point x="342" y="1556"/>
      <point x="259" y="1556" type="curve" smooth="yes"/>
      <point x="176" y="1556"/>
      <point x="151" y="1510"/>
      <point x="151" y="1418" type="curve" smooth="yes"/>
      <point x="151" y="1386"/>
      <point x="192" y="917"/>
      <point x="230" y="534" type="curve" smooth="yes"/>
      <point x="233" y="503"/>
      <point x="247" y="498"/>
    </contour>
    <contour>
      <point x="262" y="-21" type="curve" smooth="yes"/>
      <point x="332" y="-21"/>
      <point x="400" y="27"/>
      <point x="400" y="127" type="curve" smooth="yes"/>
      <point x="400" y="223"/>
      <point x="327" y="274"/>
      <point x="256" y="274" type="curve" smooth="yes"/>
      <point x="187" y="274"/>
      <point x="119" y="226"/>
      <point x="119" y="127" type="curve" smooth="yes"/>
      <point x="119" y="30"/>
      <point x="191" y="-21"/>
    </contour>
  </outline>
</glyph>
<glyph name="dollar" format="1">
  <advance width="1313"/>
  <unicode hex="0024"/>
  <outline>
    <contour>
      <point x="619" y="51" type="line"/>
      <point x="619" y="-264" type="line"/>
      <point x="713" y="-264" type="line"/>
      <point x="713" y="51" type="line"/>
    </contour>
    <contour>
      <point x="619" y="1745" type="line"/>
      <point x="619" y="1430" type="line"/>
      <point x="713" y="1430" type="line"/>
      <point x="713" y="1745" type="line"/>
    </contour>
    <component base="S"/>
  </outline>
</glyph>
<glyph name="percent" format="1">
  <advance width="2264"/>
  <unicode hex="0025"/>
  <outline>
    <contour>
      <point x="474" y="716" type="curve" smooth="yes"/>
      <point x="305" y="716"/>
      <point x="291" y="730"/>
      <point x="291" y="934" type="curve" smooth="yes"/>
      <point x="291" y="974"/>
      <point x="292" y="1022"/>
      <point x="292" y="1079" type="curve" smooth="yes"/>
      <point x="292" y="1306"/>
      <point x="308" y="1307"/>
      <point x="491" y="1307" type="curve" smooth="yes"/>
      <point x="683" y="1307"/>
      <point x="687" y="1304"/>
      <point x="687" y="1075" type="curve" smooth="yes"/>
      <point x="687" y="930" type="line" smooth="yes"/>
      <point x="687" y="731"/>
      <point x="673" y="716"/>
    </contour>
    <contour>
      <point x="491" y="584" type="curve" smooth="yes"/>
      <point x="751" y="584"/>
      <point x="842" y="652"/>
      <point x="842" y="898" type="curve" smooth="yes"/>
      <point x="842.0" y="987.682817608"/>
      <point x="841.664602165" y="1063.27892616"/>
      <point x="838.186737071" y="1126.79705424" type="curve" smooth="yes"/>
      <point x="824.679131012" y="1373.49375704"/>
      <point x="763.768935069" y="1438.0"/>
      <point x="491" y="1438" type="curve" smooth="yes"/>
      <point x="236" y="1438"/>
      <point x="144" y="1376"/>
      <point x="144" y="1124" type="curve" smooth="yes"/>
      <point x="144.0" y="1036.79942504"/>
      <point x="144.156394512" y="962.970580851"/>
      <point x="147.059107918" y="900.634805879" type="curve" smooth="yes"/>
      <point x="158.836304736" y="647.719485618"/>
      <point x="215.822669417" y="584.0"/>
    </contour>
    <contour>
      <point x="1757" y="298" type="curve" smooth="yes"/>
      <point x="1588" y="298"/>
      <point x="1574" y="312"/>
      <point x="1574" y="516" type="curve" smooth="yes"/>
      <point x="1574" y="556"/>
      <point x="1575" y="604"/>
      <point x="1575" y="661" type="curve" smooth="yes"/>
      <point x="1575" y="888"/>
      <point x="1591" y="889"/>
      <point x="1774" y="889" type="curve" smooth="yes"/>
      <point x="1966" y="889"/>
      <point x="1970" y="886"/>
      <point x="1970" y="657" type="curve" smooth="yes"/>
      <point x="1970" y="512" type="line" smooth="yes"/>
      <point x="1970" y="313"/>
      <point x="1956" y="298"/>
    </contour>
    <contour>
      <point x="1774" y="166" type="curve" smooth="yes"/>
      <point x="2034" y="166"/>
      <point x="2125" y="234"/>
      <point x="2125" y="480" type="curve" smooth="yes"/>
      <point x="2125.0" y="565.978146851"/>
      <point x="2124.69173947" y="639.009351274"/>
      <point x="2121.60184513" y="700.863550098" type="curve" smooth="yes"/>
      <point x="2108.95083592" y="954.114294533"/>
      <point x="2049.67008135" y="1020.0"/>
      <point x="1774" y="1020" type="curve" smooth="yes"/>
      <point x="1519" y="1020"/>
      <point x="1427" y="958"/>
      <point x="1427" y="706" type="curve" smooth="yes"/>
      <point x="1427.0" y="619.902778268"/>
      <point x="1427.15246182" y="546.84104177"/>
      <point x="1429.95023719" y="485.006542821" type="curve" smooth="yes"/>
      <point x="1441.48299323" y="230.117534465"/>
      <point x="1497.96450579" y="166.0"/>
    </contour>
    <contour>
      <point x="857" y="1" type="line"/>
      <point x="1025" y="1" type="line"/>
      <point x="1407" y="1573" type="line"/>
      <point x="1236" y="1573" type="line"/>
    </contour>
  </outline>
</glyph>
<glyph name="ampersand" format="1">
  <advance width="1480"/>
  <unicode hex="0026"/>
  <outline>
    <contour>
      <point x="678" y="-23" type="curve" smooth="yes"/>
      <point x="1114" y="-23"/>
      <point x="1214" y="85"/>
      <point x="1213" y="371" type="curve" smooth="yes"/>
      <point x="1212" y="727" type="line"/>
      <point x="1346" y="728" type="line"/>
      <point x="1346" y="853" type="line"/>
      <point x="1213" y="853" type="line"/>
      <point x="1213" y="962" type="line"/>
      <point x="1030" y="962" type="line"/>
      <point x="1030" y="853" type="line"/>
      <point x="549" y="853" type="line" smooth="yes"/>
      <point x="462" y="853"/>
      <point x="410" y="895"/>
      <point x="406" y="1120" type="curve" smooth="yes"/>
      <point x="406" y="1146" type="line" smooth="yes"/>
      <point x="406" y="1306"/>
      <point x="480" y="1357"/>
      <point x="712" y="1357" type="curve" smooth="yes"/>
      <point x="858" y="1357"/>
      <point x="942" y="1353"/>
      <point x="987" y="1329" type="curve" smooth="yes"/>
      <point x="1032" y="1305"/>
      <point x="1038" y="1262"/>
      <point x="1043" y="1183" type="curve"/>
      <point x="1195" y="1199" type="line"/>
      <point x="1195" y="1302" type="line" smooth="yes"/>
      <point x="1195" y="1489"/>
      <point x="1016" y="1522"/>
      <point x="712" y="1522" type="curve" smooth="yes"/>
      <point x="331" y="1522"/>
      <point x="209" y="1431"/>
      <point x="209" y="1146" type="curve" smooth="yes"/>
      <point x="209" y="1029"/>
      <point x="234" y="932"/>
      <point x="285" y="875" type="curve" smooth="yes"/>
      <point x="301" y="856"/>
      <point x="339" y="840"/>
      <point x="360" y="830" type="curve"/>
      <point x="360" y="825" type="line"/>
      <point x="332" y="819"/>
      <point x="306" y="808"/>
      <point x="283" y="792" type="curve" smooth="yes"/>
      <point x="194" y="730"/>
      <point x="146" y="590"/>
      <point x="146" y="382" type="curve" smooth="yes"/>
      <point x="146" y="104"/>
      <point x="307" y="-23"/>
    </contour>
    <contour>
      <point x="678" y="138" type="curve" smooth="yes"/>
      <point x="411" y="138"/>
      <point x="342" y="215"/>
      <point x="342" y="382" type="curve" smooth="yes"/>
      <point x="342" y="607"/>
      <point x="345" y="728"/>
      <point x="493" y="728" type="curve" smooth="yes"/>
      <point x="1030" y="728" type="line"/>
      <point x="1030" y="357" type="line" smooth="yes"/>
      <point x="1030" y="211"/>
      <point x="1001" y="138"/>
    </contour>
  </outline>
</glyph>
<glyph name="parenleft" format="1">
  <advance width="804"/>
  <unicode hex="0028"/>
  <outline>
    <contour>
      <point x="678" y="-229" type="curve"/>
      <point x="693" y="-92" type="line"/>
      <point x="425" y="-51"/>
      <point x="337" y="261"/>
      <point x="337" y="728" type="curve" smooth="yes"/>
      <point x="337" y="1195"/>
      <point x="425" y="1507"/>
      <point x="693" y="1548" type="curve"/>
      <point x="678" y="1685" type="line"/>
      <point x="279" y="1651"/>
      <point x="146" y="1239"/>
      <point x="146" y="729" type="curve" smooth="yes"/>
      <point x="146" y="217"/>
      <point x="279" y="-195"/>
    </contour>
  </outline>
</glyph>
<glyph name="parenright" format="1">
  <advance width="804"/>
  <unicode hex="0029"/>
  <outline>
    <contour>
      <point x="126" y="-229" type="line"/>
      <point x="525" y="-195"/>
      <point x="658" y="219"/>
      <point x="658" y="729" type="curve"/>
      <point x="658" y="1239"/>
      <point x="525" y="1651"/>
      <point x="126" y="1685" type="curve"/>
      <point x="111" y="1548" type="line"/>
      <point x="379" y="1507"/>
      <point x="467" y="1195"/>
      <point x="467" y="728" type="curve" smooth="yes"/>
      <point x="467" y="261"/>
      <point x="379" y="-51"/>
      <point x="111" y="-92" type="curve"/>
    </contour>
  </outline>
</glyph>
<glyph name="asterisk" format="1">
  <advance width="1169"/>
  <unicode hex="002A"/>
  <outline>
    <contour>
      <point x="404" y="574" type="curve" smooth="yes"/>
      <point x="495" y="574"/>
      <point x="512" y="713"/>
      <point x="587" y="988" type="curve"/>
      <point x="618.389300466" y="854.021278501"/>
      <point x="655.053790493" y="682.530097895"/>
      <point x="710.904363891" y="609.494226696" type="curve" smooth="yes"/>
      <point x="771.775015896" y="529.893591837"/>
      <point x="860.0" y="590.294021328"/>
      <point x="860" y="664" type="curve" smooth="yes"/>
      <point x="860" y="701"/>
      <point x="772" y="812"/>
      <point x="604" y="997" type="curve"/>
      <point x="685" y="973"/>
      <point x="851" y="915"/>
      <point x="931" y="915" type="curve" smooth="yes"/>
      <point x="1000" y="915"/>
      <point x="1034" y="945"/>
      <point x="1034" y="1006" type="curve" smooth="yes"/>
      <point x="1034" y="1066"/>
      <point x="1001" y="1096"/>
      <point x="935" y="1096" type="curve" smooth="yes"/>
      <point x="856" y="1096"/>
      <point x="787" y="1067"/>
      <point x="604" y="1012" type="curve"/>
      <point x="810" y="1231"/>
      <point x="846" y="1298"/>
      <point x="846" y="1353" type="curve" smooth="yes"/>
      <point x="846" y="1401"/>
      <point x="806" y="1436"/>
      <point x="766" y="1436" type="curve" smooth="yes"/>
      <point x="637" y="1436"/>
      <point x="599" y="1066"/>
      <point x="587" y="1022" type="curve"/>
      <point x="544" y="1213"/>
      <point x="496" y="1436"/>
      <point x="402" y="1436" type="curve" smooth="yes"/>
      <point x="348" y="1436"/>
      <point x="315" y="1397"/>
      <point x="315" y="1344" type="curve" smooth="yes"/>
      <point x="315" y="1307"/>
      <point x="400" y="1197"/>
      <point x="571" y="1012" type="curve"/>
      <point x="496" y="1032"/>
      <point x="315" y="1096"/>
      <point x="236" y="1096" type="curve" smooth="yes"/>
      <point x="170" y="1096"/>
      <point x="137" y="1066"/>
      <point x="137" y="1006" type="curve" smooth="yes"/>
      <point x="137" y="945"/>
      <point x="171" y="915"/>
      <point x="238" y="915" type="curve" smooth="yes"/>
      <point x="313" y="915"/>
      <point x="444" y="959"/>
      <point x="571" y="997" type="curve"/>
      <point x="432" y="843"/>
      <point x="325" y="734"/>
      <point x="325" y="648" type="curve" smooth="yes"/>
      <point x="325" y="612"/>
      <point x="368" y="574"/>
    </contour>
  </outline>
</glyph>
<glyph name="hyphen" format="1">
  <advance width="851"/>
  <unicode hex="002D"/>
  <outline>
    <contour>
      <point x="131" y="538" type="line"/>
      <point x="718" y="538" type="line"/>
      <point x="718" y="677" type="line"/>
      <point x="131" y="677" type="line"/>
    </contour>
    <contour>
      <point x="425" y="606" type="move" name="_mid"/>
    </contour>
  </outline>
</glyph>
<glyph name="zero" format="1">
  <advance width="1304"/>
  <unicode hex="0030"/>
  <outline>
    <contour>
      <point x="652" y="134" type="curve" smooth="yes"/>
      <point x="445" y="134"/>
      <point x="353" y="183"/>
      <point x="346" y="297" type="curve" smooth="yes"/>
      <point x="337" y="438"/>
      <point x="335" y="590"/>
      <point x="335" y="744" type="curve" smooth="yes"/>
      <point x="335" y="894"/>
      <point x="338" y="1041"/>
      <point x="347" y="1183" type="curve" smooth="yes"/>
      <point x="354" y="1309"/>
      <point x="454" y="1361"/>
      <point x="652" y="1361" type="curve" smooth="yes"/>
      <point x="849" y="1361"/>
      <point x="949" y="1309"/>
      <point x="957" y="1183" type="curve" smooth="yes"/>
      <point x="965" y="1041"/>
      <point x="969" y="894"/>
      <point x="969" y="744" type="curve" smooth="yes"/>
      <point x="969" y="590"/>
      <point x="967" y="438"/>
      <point x="958" y="297" type="curve" smooth="yes"/>
      <point x="951" y="183"/>
      <point x="859" y="134"/>
    </contour>
    <contour>
      <point x="652" y="-20" type="curve" smooth="yes"/>
      <point x="1146" y="-20"/>
      <point x="1154" y="225"/>
      <point x="1154" y="780" type="curve" smooth="yes"/>
      <point x="1154" y="833" type="line" smooth="yes"/>
      <point x="1154" y="1308"/>
      <point x="1093" y="1510"/>
      <point x="652" y="1510" type="curve" smooth="yes"/>
      <point x="192" y="1510"/>
      <point x="150" y="1293"/>
      <point x="150" y="780" type="curve" smooth="yes"/>
      <point x="150" y="713" type="line" smooth="yes"/>
      <point x="150" y="206"/>
      <point x="177" y="-20"/>
    </contour>
  </outline>
</glyph>
<glyph name="one" format="1">
  <advance width="704"/>
  <unicode hex="0031"/>
  <outline>
    <contour>
      <point x="313" y="0" type="line"/>
      <point x="500" y="0" type="line"/>
      <point x="500" y="1490" type="line"/>
      <point x="345" y="1490" type="line"/>
      <point x="306" y="1394"/>
      <point x="230" y="1348"/>
      <point x="128" y="1344" type="curve"/>
      <point x="128" y="1252" type="line"/>
      <point x="313" y="1252" type="line"/>
    </contour>
  </outline>
</glyph>
<glyph name="two" format="1">
  <advance width="1290"/>
  <unicode hex="0032"/>
  <outline>
    <contour>
      <point x="196" y="0" type="line"/>
      <point x="1058" y="0" type="line"/>
      <point x="1058" y="146" type="line"/>
      <point x="376" y="146" type="line"/>
      <point x="376" y="356"/>
      <point x="424" y="385"/>
      <point x="631" y="513" type="curve" smooth="yes"/>
      <point x="915" y="688"/>
      <point x="1087" y="748"/>
      <point x="1087" y="1100" type="curve" smooth="yes"/>
      <point x="1087" y="1425"/>
      <point x="965" y="1510"/>
      <point x="634" y="1510" type="curve" smooth="yes"/>
      <point x="324" y="1510"/>
      <point x="197" y="1427"/>
      <point x="197" y="1191" type="curve" smooth="yes"/>
      <point x="197" y="1164" type="line"/>
      <point x="358" y="1129" type="line"/>
      <point x="367" y="1236"/>
      <point x="367" y="1294"/>
      <point x="411" y="1328" type="curve" smooth="yes"/>
      <point x="456" y="1362"/>
      <point x="547" y="1372"/>
      <point x="649" y="1372" type="curve" smooth="yes"/>
      <point x="767" y="1372"/>
      <point x="832" y="1353"/>
      <point x="863" y="1309" type="curve" smooth="yes"/>
      <point x="894" y="1265"/>
      <point x="909" y="1197"/>
      <point x="909" y="1102" type="curve" smooth="yes"/>
      <point x="909" y="816"/>
      <point x="799" y="810"/>
      <point x="543" y="651" type="curve" smooth="yes"/>
      <point x="335" y="522"/>
      <point x="196" y="456"/>
      <point x="196" y="131" type="curve" smooth="yes"/>
    </contour>
  </outline>
</glyph>
<glyph name="three" format="1">
  <advance width="1290"/>
  <unicode hex="0033"/>
  <outline>
    <contour>
      <point x="606" y="-20" type="curve" smooth="yes"/>
      <point x="927" y="-20"/>
      <point x="1101" y="39"/>
      <point x="1101" y="396" type="curve" smooth="yes"/>
      <point x="1101" y="704"/>
      <point x="1014" y="741"/>
      <point x="930" y="769" type="curve"/>
      <point x="1005" y="789"/>
      <point x="1092" y="807"/>
      <point x="1092" y="1148" type="curve" smooth="yes"/>
      <point x="1092" y="1408"/>
      <point x="950" y="1510"/>
      <point x="640" y="1510" type="curve" smooth="yes"/>
      <point x="255" y="1510"/>
      <point x="156" y="1429"/>
      <point x="156" y="1206" type="curve" smooth="yes"/>
      <point x="156" y="1159" type="line"/>
      <point x="322" y="1148" type="line"/>
      <point x="322" y="1269"/>
      <point x="332" y="1311"/>
      <point x="348" y="1328" type="curve" smooth="yes"/>
      <point x="383" y="1364"/>
      <point x="501" y="1372"/>
      <point x="640" y="1372" type="curve" smooth="yes"/>
      <point x="883" y="1372"/>
      <point x="907" y="1325"/>
      <point x="907" y="1143" type="curve" smooth="yes"/>
      <point x="907" y="936"/>
      <point x="903" y="840"/>
      <point x="850" y="840" type="curve" smooth="yes"/>
      <point x="492" y="840" type="line"/>
      <point x="500" y="698" type="line"/>
      <point x="857" y="696" type="line" smooth="yes"/>
      <point x="903" y="696"/>
      <point x="914" y="637"/>
      <point x="914" y="415" type="curve" smooth="yes"/>
      <point x="914" y="176"/>
      <point x="896" y="118"/>
      <point x="610" y="118" type="curve" smooth="yes"/>
      <point x="465" y="118"/>
      <point x="365" y="124"/>
      <point x="331" y="168" type="curve" smooth="yes"/>
      <point x="304" y="203"/>
      <point x="305" y="253"/>
      <point x="305" y="347" type="curve"/>
      <point x="139" y="332" type="line"/>
      <point x="138" y="261" type="line" smooth="yes"/>
      <point x="135" y="30"/>
      <point x="317" y="-20"/>
    </contour>
  </outline>
</glyph>
<glyph name="four" format="1">
  <advance width="1290"/>
  <unicode hex="0034"/>
  <outline>
    <contour>
      <point x="664" y="1490" type="line"/>
      <point x="143" y="539" type="line"/>
      <point x="143" y="389" type="line"/>
      <point x="825" y="389" type="line"/>
      <point x="825" y="0" type="line"/>
      <point x="1010" y="0" type="line"/>
      <point x="1010" y="1017" type="line"/>
      <point x="825" y="1017" type="line"/>
      <point x="825" y="521" type="line"/>
      <point x="336" y="521" type="line"/>
      <point x="433" y="713" type="line"/>
      <point x="859" y="1490" type="line"/>
    </contour>
  </outline>
</glyph>
<glyph name="five" format="1">
  <advance width="1290"/>
  <unicode hex="0035"/>
  <outline>
    <contour>
      <point x="646" y="-20" type="curve" smooth="yes"/>
      <point x="1028" y="-20"/>
      <point x="1151" y="59"/>
      <point x="1151" y="456" type="curve" smooth="yes"/>
      <point x="1151" y="804"/>
      <point x="1088" y="951"/>
      <point x="711" y="951" type="curve" smooth="yes"/>
      <point x="483" y="951"/>
      <point x="430" y="867"/>
      <point x="387" y="761" type="curve"/>
      <point x="419" y="1336" type="line"/>
      <point x="1064" y="1336" type="line"/>
      <point x="1064" y="1490" type="line"/>
      <point x="222" y="1490" type="line"/>
      <point x="222" y="662" type="line"/>
      <point x="396" y="649" type="line"/>
      <point x="407" y="709"/>
      <point x="430" y="745"/>
      <point x="464" y="767" type="curve" smooth="yes"/>
      <point x="513" y="798"/>
      <point x="583" y="800"/>
      <point x="671" y="800" type="curve" smooth="yes"/>
      <point x="965" y="800"/>
      <point x="971" y="754"/>
      <point x="971" y="522" type="curve" smooth="yes"/>
      <point x="971" y="470"/>
      <point x="974" y="421"/>
      <point x="974" y="377" type="curve" smooth="yes"/>
      <point x="974" y="227"/>
      <point x="940" y="129"/>
      <point x="647" y="129" type="curve" smooth="yes"/>
      <point x="430" y="129"/>
      <point x="387" y="154"/>
      <point x="368" y="296" type="curve" smooth="yes"/>
      <point x="365" y="318"/>
      <point x="362" y="343"/>
      <point x="360" y="371" type="curve"/>
      <point x="209" y="350" type="line"/>
      <point x="209" y="327"/>
      <point x="207" y="306"/>
      <point x="207" y="285" type="curve" smooth="yes"/>
      <point x="207" y="17"/>
      <point x="387" y="-20"/>
    </contour>
  </outline>
</glyph>
<glyph name="six" format="1">
  <advance width="1290"/>
  <unicode hex="0036"/>
  <outline>
    <contour>
      <point x="716" y="-13" type="curve" smooth="yes"/>
      <point x="1098" y="-13"/>
      <point x="1187" y="88"/>
      <point x="1187" y="491" type="curve" smooth="yes"/>
      <point x="1187" y="883"/>
      <point x="1053" y="951"/>
      <point x="693" y="951" type="curve" smooth="yes"/>
      <point x="502" y="951"/>
      <point x="427" y="915"/>
      <point x="372" y="845" type="curve"/>
      <point x="373" y="1150" type="line" smooth="yes"/>
      <point x="374" y="1316"/>
      <point x="435" y="1367"/>
      <point x="673" y="1367" type="curve" smooth="yes"/>
      <point x="791" y="1367"/>
      <point x="908" y="1363"/>
      <point x="938" y="1335" type="curve" smooth="yes"/>
      <point x="968" y="1306"/>
      <point x="969" y="1233"/>
      <point x="969" y="1135" type="curve"/>
      <point x="1137" y="1144" type="line"/>
      <point x="1137" y="1275" type="line" smooth="yes"/>
      <point x="1137" y="1482"/>
      <point x="913" y="1503"/>
      <point x="675" y="1503" type="curve" smooth="yes"/>
      <point x="192" y="1503"/>
      <point x="183" y="1329"/>
      <point x="183" y="804" type="curve" smooth="yes"/>
      <point x="183" y="638" type="line" smooth="yes"/>
      <point x="183" y="93"/>
      <point x="226" y="-13"/>
    </contour>
    <contour>
      <point x="680" y="124" type="curve" smooth="yes"/>
      <point x="386" y="124"/>
      <point x="373" y="204"/>
      <point x="371" y="373" type="curve" smooth="yes"/>
      <point x="369" y="527" type="line" smooth="yes"/>
      <point x="367" y="708"/>
      <point x="362" y="797"/>
      <point x="681" y="797" type="curve" smooth="yes"/>
      <point x="985" y="797"/>
      <point x="1006" y="752"/>
      <point x="1006" y="533" type="curve" smooth="yes"/>
      <point x="1006" y="336" type="line" smooth="yes"/>
      <point x="1006" y="180"/>
      <point x="976" y="124"/>
    </contour>
  </outline>
</glyph>
<glyph name="seven" format="1">
  <advance width="1290"/>
  <unicode hex="0037"/>
  <outline>
    <contour>
      <point x="409" y="0" type="line"/>
      <point x="608" y="0" type="line"/>
      <point x="1120" y="1320" type="line"/>
      <point x="1120" y="1490" type="line"/>
      <point x="206" y="1490" type="line"/>
      <point x="206" y="1338" type="line"/>
      <point x="931" y="1338" type="line"/>
    </contour>
  </outline>
</glyph>
<glyph name="eight" format="1">
  <advance width="1290"/>
  <unicode hex="0038"/>
  <outline>
    <contour>
      <point x="646" y="-16" type="curve" smooth="yes"/>
      <point x="998" y="-16"/>
      <point x="1141" y="54"/>
      <point x="1141" y="383" type="curve" smooth="yes"/>
      <point x="1141" y="660"/>
      <point x="1074" y="732"/>
      <point x="953" y="798" type="curve"/>
      <point x="1039" y="844"/>
      <point x="1068" y="962"/>
      <point x="1068" y="1132" type="curve" smooth="yes"/>
      <point x="1068" y="1419"/>
      <point x="992" y="1506"/>
      <point x="645" y="1506" type="curve" smooth="yes"/>
      <point x="298" y="1506"/>
      <point x="223" y="1419"/>
      <point x="223" y="1132" type="curve" smooth="yes"/>
      <point x="223" y="962"/>
      <point x="251" y="844"/>
      <point x="337" y="798" type="curve"/>
      <point x="216" y="732"/>
      <point x="150" y="660"/>
      <point x="150" y="383" type="curve" smooth="yes"/>
      <point x="150" y="53"/>
      <point x="293" y="-16"/>
    </contour>
    <contour>
      <point x="645" y="127" type="curve" smooth="yes"/>
      <point x="367" y="127"/>
      <point x="334" y="198"/>
      <point x="334" y="320" type="curve" smooth="yes"/>
      <point x="334" y="493" type="line" smooth="yes"/>
      <point x="334" y="709"/>
      <point x="407" y="711"/>
      <point x="646" y="711" type="curve" smooth="yes"/>
      <point x="883" y="711"/>
      <point x="956" y="708"/>
      <point x="956" y="493" type="curve" smooth="yes"/>
      <point x="956" y="320" type="line" smooth="yes"/>
      <point x="956" y="198"/>
      <point x="923" y="127"/>
    </contour>
    <contour>
      <point x="474" y="855" type="line"/>
      <point x="411" y="895"/>
      <point x="397" y="982"/>
      <point x="397" y="1141" type="curve" smooth="yes"/>
      <point x="397" y="1337"/>
      <point x="408" y="1358"/>
      <point x="646" y="1358" type="curve" smooth="yes"/>
      <point x="882" y="1358"/>
      <point x="893" y="1336"/>
      <point x="893" y="1141" type="curve" smooth="yes"/>
      <point x="893" y="972"/>
      <point x="879" y="895"/>
      <point x="816" y="855" type="curve"/>
    </contour>
  </outline>
</glyph>
<glyph name="nine" format="1">
  <advance width="1290"/>
  <unicode hex="0039"/>
  <outline>
    <contour>
      <point x="655" y="-20" type="curve" smooth="yes"/>
      <point x="1138" y="-20"/>
      <point x="1147" y="154"/>
      <point x="1147" y="686" type="curve" smooth="yes"/>
      <point x="1147" y="852" type="line" smooth="yes"/>
      <point x="1147" y="1404"/>
      <point x="1104" y="1510"/>
      <point x="614" y="1510" type="curve" smooth="yes"/>
      <point x="232" y="1510"/>
      <point x="143" y="1409"/>
      <point x="143" y="1006" type="curve" smooth="yes"/>
      <point x="143" y="614"/>
      <point x="277" y="539"/>
      <point x="637" y="539" type="curve" smooth="yes"/>
      <point x="828" y="539"/>
      <point x="903" y="575"/>
      <point x="958" y="645" type="curve"/>
      <point x="957" y="333" type="line" smooth="yes"/>
      <point x="956" y="167"/>
      <point x="895" y="116"/>
      <point x="657" y="116" type="curve" smooth="yes"/>
      <point x="539" y="116"/>
      <point x="420" y="120"/>
      <point x="390" y="148" type="curve" smooth="yes"/>
      <point x="360" y="177"/>
      <point x="359" y="230"/>
      <point x="359" y="328" type="curve"/>
      <point x="191" y="319" type="line"/>
      <point x="191" y="208" type="line" smooth="yes"/>
      <point x="191" y="1"/>
      <point x="417" y="-20"/>
    </contour>
    <contour>
      <point x="649" y="693" type="curve" smooth="yes"/>
      <point x="345" y="693"/>
      <point x="324" y="738"/>
      <point x="324" y="957" type="curve" smooth="yes"/>
      <point x="324" y="1161" type="line" smooth="yes"/>
      <point x="324" y="1317"/>
      <point x="354" y="1373"/>
      <point x="650" y="1373" type="curve" smooth="yes"/>
      <point x="944" y="1373"/>
      <point x="957" y="1293"/>
      <point x="959" y="1124" type="curve" smooth="yes"/>
      <point x="961" y="963" type="line" smooth="yes"/>
      <point x="963" y="782"/>
      <point x="968" y="693"/>
    </contour>
  </outline>
</glyph>
<glyph name="greater" format="1">
  <advance width="977"/>
  <unicode hex="003E"/>
  <outline>
    <contour>
      <point x="152" y="234" type="line"/>
      <point x="850" y="667" type="line"/>
      <point x="850" y="832" type="line"/>
      <point x="152" y="1281" type="line"/>
      <point x="152" y="1045" type="line"/>
      <point x="672" y="757" type="line"/>
      <point x="152" y="461" type="line"/>
    </contour>
  </outline>
</glyph>
<glyph name="at" format="1">
  <advance width="2050"/>
  <unicode hex="0040"/>
  <outline>
    <contour>
      <point x="1037" y="-234" type="curve" smooth="yes"/>
      <point x="1277" y="-234"/>
      <point x="1444" y="-200"/>
      <point x="1616" y="-132" type="curve"/>
      <point x="1577" y="-19" type="line"/>
      <point x="1385" y="-90"/>
      <point x="1156" y="-112"/>
      <point x="1037" y="-112" type="curve" smooth="yes"/>
      <point x="498" y="-112"/>
      <point x="349" y="129"/>
      <point x="349" y="658" type="curve" smooth="yes"/>
      <point x="349" y="1174"/>
      <point x="517" y="1400"/>
      <point x="1058" y="1400" type="curve" smooth="yes"/>
      <point x="1617" y="1400"/>
      <point x="1703" y="1193"/>
      <point x="1703" y="668" type="curve" smooth="yes"/>
      <point x="1703" y="346"/>
      <point x="1701" y="316"/>
      <point x="1639" y="272" type="curve"/>
      <point x="1602" y="248"/>
      <point x="1537" y="247"/>
      <point x="1443" y="247" type="curve"/>
      <point x="1443" y="914" type="line" smooth="yes"/>
      <point x="1443" y="1102"/>
      <point x="1325" y="1193"/>
      <point x="1085" y="1193" type="curve" smooth="yes"/>
      <point x="834" y="1193"/>
      <point x="684" y="1171"/>
      <point x="684" y="977" type="curve" smooth="yes"/>
      <point x="684" y="949"/>
      <point x="687" y="920"/>
      <point x="694" y="888" type="curve"/>
      <point x="829" y="888" type="line"/>
      <point x="825" y="936"/>
      <point x="813" y="999"/>
      <point x="838" y="1029" type="curve" smooth="yes"/>
      <point x="868" y="1064"/>
      <point x="940" y="1070"/>
      <point x="1057" y="1070" type="curve"/>
      <point x="1233" y="1070"/>
      <point x="1284" y="1054"/>
      <point x="1284" y="928" type="curve" smooth="yes"/>
      <point x="1284" y="710" type="line"/>
      <point x="1132" y="736"/>
      <point x="1065" y="746"/>
      <point x="963" y="746" type="curve" smooth="yes"/>
      <point x="752" y="746"/>
      <point x="644" y="650"/>
      <point x="644" y="434" type="curve" smooth="yes"/>
      <point x="644" y="196"/>
      <point x="755" y="130"/>
      <point x="1016" y="130" type="curve" smooth="yes"/>
      <point x="1245" y="130"/>
      <point x="1302" y="193"/>
      <point x="1337" y="297" type="curve"/>
      <point x="1352" y="215"/>
      <point x="1409" y="154"/>
      <point x="1496" y="154" type="curve" smooth="yes"/>
      <point x="1827" y="154"/>
      <point x="1853" y="294"/>
      <point x="1853" y="660" type="curve" smooth="yes"/>
      <point x="1853" y="1297"/>
      <point x="1697" y="1525"/>
      <point x="1039" y="1525" type="curve" smooth="yes"/>
      <point x="425" y="1525"/>
      <point x="197" y="1250"/>
      <point x="197" y="629" type="curve" smooth="yes"/>
      <point x="197" y="-11"/>
      <point x="437" y="-234"/>
    </contour>
    <contour>
      <point x="1053" y="234" type="curve" smooth="yes"/>
      <point x="822" y="234"/>
      <point x="795" y="277"/>
      <point x="795" y="394" type="curve" smooth="yes"/>
      <point x="795" y="605"/>
      <point x="839" y="634"/>
      <point x="1000" y="635" type="curve" smooth="yes"/>
      <point x="1284" y="637" type="line"/>
      <point x="1283" y="455" type="line" smooth="yes"/>
      <point x="1282" y="342"/>
      <point x="1211" y="234"/>
    </contour>
  </outline>
</glyph>
<glyph name="A" format="1">
  <advance width="1382"/>
  <unicode hex="0041"/>
  <outline>
    <contour>
      <point x="561" y="1490" type="line"/>
      <point x="98" y="0" type="line"/>
      <point x="293" y="0" type="line"/>
      <point x="406" y="381" type="line"/>
      <point x="963" y="381" type="line"/>
      <point x="1080" y="0" type="line"/>
      <point x="1286" y="0" type="line"/>
      <point x="832" y="1490" type="line"/>
    </contour>
    <contour>
      <point x="921" y="525" type="line"/>
      <point x="449" y="525" type="line"/>
      <point x="686" y="1347" type="line"/>
      <point x="687" y="1347" type="line"/>
    </contour>
    <contour>
      <point x="691" y="1490" type="move" name="top"/>
    </contour>
    <contour>
      <point x="1181" y="0" type="move" name="ogonek"/>
    </contour>
    <contour>
      <point x="691" y="0" type="move" name="bot"/>
    </contour>
  </outline>
</glyph>
<glyph name="B" format="1">
  <advance width="1372"/>
  <unicode hex="0042"/>
  <outline>
    <contour>
      <point x="192" y="0" type="line"/>
      <point x="726" y="0" type="line" smooth="yes"/>
      <point x="1158" y="0"/>
      <point x="1242" y="25"/>
      <point x="1242" y="429" type="curve" smooth="yes"/>
      <point x="1242" y="624"/>
      <point x="1211" y="779"/>
      <point x="977" y="803" type="curve"/>
      <point x="977" y="805" type="line"/>
      <point x="1140" y="836"/>
      <point x="1189" y="898"/>
      <point x="1189" y="1104" type="curve"/>
      <point x="1188" y="1212" type="line" smooth="yes"/>
      <point x="1186" y="1442"/>
      <point x="1041" y="1490"/>
      <point x="758" y="1490" type="curve" smooth="yes"/>
      <point x="192" y="1490" type="line"/>
    </contour>
    <contour>
      <point x="393" y="151" type="line"/>
      <point x="393" y="729" type="line"/>
      <point x="627" y="729" type="line" smooth="yes"/>
      <point x="1057" y="729"/>
      <point x="1041" y="701"/>
      <point x="1044" y="477" type="curve" smooth="yes"/>
      <point x="1046" y="344" type="line" smooth="yes"/>
      <point x="1046" y="198"/>
      <point x="1003" y="151"/>
      <point x="775" y="151" type="curve" smooth="yes"/>
    </contour>
    <contour>
      <point x="393" y="860" type="line"/>
      <point x="393" y="1338" type="line"/>
      <point x="662" y="1338" type="line" smooth="yes"/>
      <point x="987" y="1338"/>
      <point x="991" y="1328"/>
      <point x="991" y="1159" type="curve" smooth="yes"/>
      <point x="991" y="989" type="line" smooth="yes"/>
      <point x="991" y="905"/>
      <point x="950" y="860"/>
      <point x="594" y="860" type="curve" smooth="yes"/>
    </contour>
    <contour>
      <point x="702" y="1490" type="move" name="top"/>
    </contour>
  </outline>
</glyph>
<glyph name="C" format="1">
  <advance width="1357"/>
  <unicode hex="0043"/>
  <outline>
    <contour>
      <point x="297" y="1510"/>
      <point x="180" y="1435"/>
      <point x="152" y="1065" type="curve" smooth="yes"/>
      <point x="146" y="976"/>
      <point x="144" y="874"/>
      <point x="144" y="748" type="curve" smooth="yes"/>
      <point x="144" y="631"/>
      <point x="145" y="527"/>
      <point x="153" y="439" type="curve" smooth="yes"/>
      <point x="182" y="95"/>
      <point x="301" y="-20"/>
      <point x="772" y="-20" type="curve" smooth="yes"/>
      <point x="1099" y="-20"/>
      <point x="1225" y="51"/>
      <point x="1249" y="335" type="curve" smooth="yes"/>
      <point x="1258" y="440" type="line"/>
      <point x="1084" y="451" type="line"/>
      <point x="1074" y="324"/>
      <point x="1074" y="256"/>
      <point x="1034" y="205" type="curve" smooth="yes"/>
      <point x="995" y="154"/>
      <point x="915" y="134"/>
      <point x="743" y="134" type="curve" smooth="yes"/>
      <point x="444" y="134"/>
      <point x="363" y="188"/>
      <point x="356" y="293" type="curve" smooth="yes"/>
      <point x="348" y="415"/>
      <point x="347" y="540"/>
      <point x="347" y="668" type="curve" smooth="yes"/>
      <point x="347" y="851"/>
      <point x="348" y="1024"/>
      <point x="356" y="1200" type="curve" smooth="yes"/>
      <point x="363" y="1344"/>
      <point x="490" y="1357"/>
      <point x="742" y="1357" type="curve" smooth="yes"/>
      <point x="881" y="1357"/>
      <point x="958" y="1356"/>
      <point x="1004" y="1316" type="curve" smooth="yes"/>
      <point x="1051" y="1276"/>
      <point x="1067" y="1207"/>
      <point x="1082" y="1051" type="curve"/>
      <point x="1257" y="1075" type="line"/>
      <point x="1249" y="1151" type="line" smooth="yes"/>
      <point x="1217" y="1452"/>
      <point x="1073" y="1510"/>
      <point x="754" y="1510" type="curve" smooth="yes"/>
    </contour>
    <contour>
      <point x="729" y="1490" type="move" name="top"/>
    </contour>
    <contour>
      <point x="729" y="0" type="move" name="bot"/>
    </contour>
  </outline>
</glyph>
<glyph name="D" format="1">
  <advance width="1434"/>
  <unicode hex="0044"/>
  <outline>
    <contour>
      <point x="192" y="1490" type="line"/>
      <point x="192" y="0" type="line"/>
      <point x="554" y="0" type="line" smooth="yes"/>
      <point x="1203" y="0"/>
      <point x="1289" y="25"/>
      <point x="1298" y="687" type="curve"/>
      <point x="1299" y="855" type="line"/>
      <point x="1299" y="1350"/>
      <point x="1194" y="1490"/>
      <point x="708" y="1490" type="curve" smooth="yes"/>
    </contour>
    <contour>
      <point x="1098" y="873" type="curve" smooth="yes"/>
      <point x="1098" y="620" type="line" smooth="yes"/>
      <point x="1098" y="168"/>
      <point x="1029" y="153"/>
      <point x="635" y="153" type="curve" smooth="yes"/>
      <point x="395" y="153" type="line"/>
      <point x="395" y="1336" type="line"/>
      <point x="605" y="1336" type="line" smooth="yes"/>
      <point x="1098" y="1336"/>
      <point x="1098" y="1259"/>
    </contour>
    <contour>
      <point x="737" y="0" type="move" name="bot"/>
    </contour>
    <contour>
      <point x="737" y="1490" type="move" name="top"/>
    </contour>
    <contour>
      <point x="336" y="767" type="move" name="mid"/>
    </contour>
  </outline>
</glyph>
<glyph name="G" format="1">
  <advance width="1378"/>
  <unicode hex="0047"/>
  <outline>
    <contour>
      <point x="364" y="1513"/>
      <point x="227" y="1440"/>
      <point x="175" y="1211" type="curve" smooth="yes"/>
      <point x="149" y="1097"/>
      <point x="144" y="945"/>
      <point x="144" y="744" type="curve" smooth="yes"/>
      <point x="144" y="557"/>
      <point x="147" y="414"/>
      <point x="164" y="303" type="curve" smooth="yes"/>
      <point x="205" y="50"/>
      <point x="325" y="-24"/>
      <point x="673" y="-24" type="curve" smooth="yes"/>
      <point x="960" y="-24"/>
      <point x="1156" y="22"/>
      <point x="1248" y="106" type="curve"/>
      <point x="1248" y="745" type="line"/>
      <point x="733" y="745" type="line"/>
      <point x="750" y="594" type="line"/>
      <point x="1063" y="594" type="line"/>
      <point x="1063" y="176" type="line"/>
      <point x="1038" y="145"/>
      <point x="909" y="130"/>
      <point x="684" y="130" type="curve" smooth="yes"/>
      <point x="362" y="130"/>
      <point x="365" y="167"/>
      <point x="357" y="352" type="curve" smooth="yes"/>
      <point x="351" y="488"/>
      <point x="348" y="628"/>
      <point x="348" y="772" type="curve" smooth="yes"/>
      <point x="348" y="914"/>
      <point x="348" y="1055"/>
      <point x="357" y="1192" type="curve" smooth="yes"/>
      <point x="365" y="1319"/>
      <point x="422" y="1360"/>
      <point x="690" y="1360" type="curve" smooth="yes"/>
      <point x="939" y="1360"/>
      <point x="1029" y="1348"/>
      <point x="1032" y="1259" type="curve" smooth="yes"/>
      <point x="1043" y="1062" type="line"/>
      <point x="1222" y="1096" type="line"/>
      <point x="1223" y="1112"/>
      <point x="1224" y="1129"/>
      <point x="1224" y="1146" type="curve" smooth="yes"/>
      <point x="1224" y="1506"/>
      <point x="989" y="1513"/>
      <point x="718" y="1513" type="curve" smooth="yes"/>
    </contour>
    <contour>
      <point x="689" y="1490" type="move" name="top"/>
    </contour>
    <contour>
      <point x="689" y="0" type="move" name="bot"/>
    </contour>
  </outline>
</glyph>
<glyph name="H" format="1">
  <advance width="1456"/>
  <unicode hex="0048"/>
  <outline>
    <contour>
      <point x="1061" y="1490" type="line"/>
      <point x="1061" y="842" type="line"/>
      <point x="395" y="842" type="line"/>
      <point x="395" y="1490" type="line"/>
      <point x="192" y="1490" type="line"/>
      <point x="192" y="0" type="line"/>
      <point x="395" y="0" type="line"/>
      <point x="395" y="684" type="line"/>
      <point x="1061" y="684" type="line"/>
      <point x="1061" y="0" type="line"/>
      <point x="1264" y="0" type="line"/>
      <point x="1264" y="1490" type="line"/>
    </contour>
    <contour>
      <point x="728" y="1490" type="move" name="top"/>
    </contour>
    <contour>
      <point x="733" y="745" type="move" name="center"/>
    </contour>
    <contour>
      <point x="728" y="0" type="move" name="bot"/>
    </contour>
  </outline>
</glyph>
<glyph name="I" format="1">
  <advance width="525"/>
  <unicode hex="0049"/>
  <outline>
    <contour>
      <point x="161" y="1490" type="line"/>
      <point x="161" y="0" type="line"/>
      <point x="364" y="0" type="line"/>
      <point x="364" y="1490" type="line"/>
    </contour>
    <contour>
      <point x="263" y="1490" type="move" name="top"/>
    </contour>
    <contour>
      <point x="269" y="0" type="move" name="ogonek"/>
    </contour>
    <contour>
      <point x="263" y="0" type="move" name="bot"/>
    </contour>
  </outline>
</glyph>
<glyph name="J" format="1">
  <advance width="757"/>
  <unicode hex="004A"/>
  <outline>
    <contour>
      <point x="279" y="-16" type="curve" smooth="yes"/>
      <point x="472" y="-16"/>
      <point x="599" y="35"/>
      <point x="599" y="319" type="curve" smooth="yes"/>
      <point x="599" y="1490" type="line"/>
      <point x="396" y="1490" type="line"/>
      <point x="396" y="337" type="line" smooth="yes"/>
      <point x="396" y="202.472"/>
      <point x="391.412" y="156.427"/>
      <point x="266.726" y="142" type="curve" smooth="yes"/>
      <point x="226.759" y="137.376"/>
      <point x="174.452" y="136"/>
      <point x="106" y="136" type="curve"/>
      <point x="112" y="-8" type="line"/>
      <point x="112" y="-8"/>
      <point x="209" y="-16"/>
    </contour>
    <contour>
      <point x="496" y="1490" type="move" name="top"/>
    </contour>
    <contour>
      <point x="379" y="0" type="move" name="bot"/>
    </contour>
  </outline>
</glyph>
<glyph name="K" format="1">
  <advance width="1284"/>
  <unicode hex="004B"/>
  <outline>
    <contour>
      <point x="973" y="1490" type="line"/>
      <point x="508" y="901" type="line"/>
      <point x="393" y="754" type="line"/>
      <point x="394" y="935" type="line"/>
      <point x="394" y="1490" type="line"/>
      <point x="192" y="1490" type="line"/>
      <point x="192" y="0" type="line"/>
      <point x="394" y="0" type="line"/>
      <point x="394" y="591" type="line"/>
      <point x="472" y="684" type="line"/>
      <point x="1035" y="0" type="line"/>
      <point x="1280" y="0" type="line"/>
      <point x="640" y="780" type="line"/>
      <point x="1214" y="1490" type="line"/>
    </contour>
    <contour>
      <point x="641" y="1490" type="move" name="top"/>
    </contour>
    <contour>
      <point x="641" y="0" type="move" name="bot"/>
    </contour>
  </outline>
</glyph>
<glyph name="L" format="1">
  <advance width="1011"/>
  <unicode hex="004C"/>
  <outline>
    <contour>
      <point x="192" y="1490" type="line"/>
      <point x="192" y="0" type="line"/>
      <point x="949" y="0" type="line"/>
      <point x="969" y="153" type="line"/>
      <point x="395" y="153" type="line"/>
      <point x="395" y="1490" type="line"/>
    </contour>
    <contour>
      <point x="548" y="0" type="move" name="bot"/>
    </contour>
    <contour>
      <point x="345" y="1098" type="move" name="caron.alt"/>
    </contour>
    <contour>
      <point x="309" y="1490" type="move" name="top"/>
    </contour>
  </outline>
</glyph>
<glyph name="M" format="1">
  <advance width="1769"/>
  <unicode hex="004D"/>
  <outline>
    <contour>
      <point x="1310" y="1499" type="line"/>
      <point x="889" y="329" type="line"/>
      <point x="887" y="329" type="line"/>
      <point x="458" y="1499" type="line"/>
      <point x="238" y="1499" type="line"/>
      <point x="140" y="0" type="line"/>
      <point x="327" y="0" type="line"/>
      <point x="395" y="1190" type="line"/>
      <point x="397" y="1190" type="line"/>
      <point x="829" y="0" type="line"/>
      <point x="945" y="0" type="line"/>
      <point x="1355" y="1190" type="line"/>
      <point x="1360" y="1190" type="line"/>
      <point x="1431" y="0" type="line"/>
      <point x="1629" y="0" type="line"/>
      <point x="1530" y="1499" type="line"/>
    </contour>
    <contour>
      <point x="886" y="0" type="move" name="bot"/>
    </contour>
    <contour>
      <point x="886" y="1490" type="move" name="top"/>
    </contour>
  </outline>
</glyph>
<glyph name="O" format="1">
  <advance width="1444"/>
  <unicode hex="004F"/>
  <outline>
    <contour>
      <point x="722" y="134" type="curve" smooth="yes"/>
      <point x="388" y="134"/>
      <point x="357" y="181"/>
      <point x="351" y="397" type="curve" smooth="yes"/>
      <point x="348" y="488"/>
      <point x="348" y="580"/>
      <point x="348" y="743" type="curve" smooth="yes"/>
      <point x="348" y="910"/>
      <point x="348" y="1002"/>
      <point x="351" y="1093" type="curve" smooth="yes"/>
      <point x="357" y="1309"/>
      <point x="388" y="1356"/>
      <point x="722" y="1356" type="curve" smooth="yes"/>
      <point x="1056" y="1356"/>
      <point x="1087" y="1309"/>
      <point x="1093" y="1093" type="curve" smooth="yes"/>
      <point x="1096" y="1002"/>
      <point x="1096" y="910"/>
      <point x="1096" y="743" type="curve" smooth="yes"/>
      <point x="1096" y="580"/>
      <point x="1096" y="488"/>
      <point x="1093" y="397" type="curve" smooth="yes"/>
      <point x="1087" y="181"/>
      <point x="1056" y="134"/>
    </contour>
    <contour>
      <point x="722" y="-20" type="curve" smooth="yes"/>
      <point x="1221" y="-20"/>
      <point x="1300" y="127"/>
      <point x="1300" y="682" type="curve" smooth="yes"/>
      <point x="1300" y="808" type="line" smooth="yes"/>
      <point x="1300" y="1363"/>
      <point x="1221" y="1510"/>
      <point x="722" y="1510" type="curve" smooth="yes"/>
      <point x="223" y="1510"/>
      <point x="144" y="1363"/>
      <point x="144" y="808" type="curve" smooth="yes"/>
      <point x="144" y="682" type="line" smooth="yes"/>
      <point x="144" y="127"/>
      <point x="223" y="-20"/>
    </contour>
    <contour>
      <point x="722" y="1490" type="move" name="top"/>
    </contour>
    <contour>
      <point x="722" y="0" type="move" name="bot"/>
    </contour>
    <contour>
      <point x="819" y="0" type="move" name="ogonek"/>
    </contour>
  </outline>
</glyph>
<glyph name="P" format="1">
  <advance width="1304"/>
  <unicode hex="0050"/>
  <outline>
    <contour>
      <point x="192" y="0" type="line"/>
      <point x="394" y="0" type="line"/>
      <point x="394" y="521" type="line"/>
      <point x="791" y="521" type="line" smooth="yes"/>
      <point x="1036" y="521"/>
      <point x="1191" y="573"/>
      <point x="1198" y="978" type="curve" smooth="yes"/>
      <point x="1198" y="1004" type="line" smooth="yes"/>
      <point x="1198" y="1414"/>
      <point x="1085" y="1490"/>
      <point x="732" y="1490" type="curve" smooth="yes"/>
      <point x="192" y="1490" type="line"/>
    </contour>
    <contour>
      <point x="394" y="672" type="line"/>
      <point x="394" y="1340" type="line"/>
      <point x="788" y="1340" type="line" smooth="yes"/>
      <point x="855.795" y="1340"/>
      <point x="901.25" y="1331.81"/>
      <point x="931.86" y="1307.79" type="curve" smooth="yes"/>
      <point x="983.425" y="1267.32"/>
      <point x="992.862" y="1181.92"/>
      <point x="996" y="1015" type="curve" smooth="yes"/>
      <point x="996" y="858.862"/>
      <point x="996.861" y="759.967"/>
      <point x="926.583" y="710.407" type="curve" smooth="yes"/>
      <point x="889.736" y="684.422"/>
      <point x="833.334" y="672"/>
      <point x="747" y="672" type="curve" smooth="yes"/>
    </contour>
    <contour>
      <point x="658" y="0" type="move" name="bot"/>
    </contour>
    <contour>
      <point x="658" y="1490" type="move" name="top"/>
    </contour>
  </outline>
</glyph>
<glyph name="R" format="1">
  <advance width="1381"/>
  <unicode hex="0052"/>
  <outline>
    <contour>
      <point x="192" y="0" type="line"/>
      <point x="394" y="0" type="line"/>
      <point x="394" y="641" type="line"/>
      <point x="703" y="641" type="line" smooth="yes"/>
      <point x="853" y="641"/>
      <point x="954" y="599"/>
      <point x="978" y="434" type="curve" smooth="yes"/>
      <point x="1040" y="0" type="line"/>
      <point x="1257" y="0" type="line"/>
      <point x="1180" y="465" type="line" smooth="yes"/>
      <point x="1156" y="602"/>
      <point x="1103" y="687"/>
      <point x="975" y="713" type="curve"/>
      <point x="975" y="713"/>
      <point x="975" y="714"/>
      <point x="975" y="714" type="curve" smooth="yes"/>
      <point x="1131" y="741"/>
      <point x="1225" y="820"/>
      <point x="1225" y="1090" type="curve" smooth="yes"/>
      <point x="1225" y="1469"/>
      <point x="1035" y="1490"/>
      <point x="647" y="1490" type="curve" smooth="yes"/>
      <point x="192" y="1490" type="line"/>
    </contour>
    <contour>
      <point x="394" y="800" type="line"/>
      <point x="394" y="1337" type="line"/>
      <point x="731" y="1337" type="line" smooth="yes"/>
      <point x="1011" y="1337"/>
      <point x="1025" y="1293"/>
      <point x="1025" y="1084" type="curve" smooth="yes"/>
      <point x="1025" y="857"/>
      <point x="996" y="800"/>
      <point x="743" y="800" type="curve" smooth="yes"/>
    </contour>
    <contour>
      <point x="701" y="1490" type="move" name="top"/>
    </contour>
    <contour>
      <point x="701" y="0" type="move" name="bot"/>
    </contour>
  </outline>
</glyph>
<glyph name="S" format="1">
  <advance width="1302"/>
  <unicode hex="0053"/>
  <outline>
    <contour>
      <point x="642" y="-20" type="curve" smooth="yes"/>
      <point x="1017" y="-20"/>
      <point x="1161" y="10"/>
      <point x="1161" y="441" type="curve" smooth="yes"/>
      <point x="1161" y="784"/>
      <point x="1043" y="811"/>
      <point x="789" y="854" type="curve" smooth="yes"/>
      <point x="490" y="905" type="line"/>
      <point x="440" y="914"/>
      <point x="407" y="926"/>
      <point x="386" y="946" type="curve" smooth="yes"/>
      <point x="355" y="974"/>
      <point x="349" y="1018"/>
      <point x="349" y="1087" type="curve" smooth="yes"/>
      <point x="349" y="1303"/>
      <point x="381" y="1341"/>
      <point x="668" y="1341" type="curve" smooth="yes"/>
      <point x="811" y="1341"/>
      <point x="876" y="1332"/>
      <point x="908" y="1301" type="curve" smooth="yes"/>
      <point x="941" y="1270"/>
      <point x="939" y="1216"/>
      <point x="947" y="1126" type="curve"/>
      <point x="1125" y="1167" type="line"/>
      <point x="1125" y="1466"/>
      <point x="986" y="1510"/>
      <point x="636" y="1510" type="curve" smooth="yes"/>
      <point x="264" y="1510"/>
      <point x="155" y="1439"/>
      <point x="155" y="1078" type="curve" smooth="yes"/>
      <point x="155" y="850"/>
      <point x="216" y="760"/>
      <point x="390" y="730" type="curve" smooth="yes"/>
      <point x="729" y="671" type="line"/>
      <point x="888" y="643" type="line" smooth="yes"/>
      <point x="949" y="632"/>
      <point x="959" y="572"/>
      <point x="960" y="408" type="curve" smooth="yes"/>
      <point x="961" y="186"/>
      <point x="928" y="144"/>
      <point x="646" y="144" type="curve" smooth="yes"/>
      <point x="480" y="144"/>
      <point x="405" y="157"/>
      <point x="368" y="197" type="curve" smooth="yes"/>
      <point x="332" y="237"/>
      <point x="334" y="304"/>
      <point x="321" y="414" type="curve"/>
      <point x="136" y="384" type="line"/>
      <point x="149" y="73"/>
      <point x="174" y="-20"/>
    </contour>
    <contour>
      <point x="644" y="1490" type="move" name="top"/>
    </contour>
    <contour>
      <point x="644" y="0" type="move" name="bot"/>
    </contour>
  </outline>
</glyph>
<glyph name="U" format="1">
  <advance width="1417"/>
  <unicode hex="0055"/>
  <outline>
    <contour>
      <point x="146" y="1490" type="line"/>
      <point x="146" y="561" type="line" smooth="yes"/>
      <point x="146" y="73"/>
      <point x="284" y="-20"/>
      <point x="707" y="-20" type="curve" smooth="yes"/>
      <point x="1150" y="-20"/>
      <point x="1271" y="92"/>
      <point x="1271" y="561" type="curve" smooth="yes"/>
      <point x="1271" y="1490" type="line"/>
      <point x="1069" y="1490" type="line"/>
      <point x="1069" y="439" type="line" smooth="yes"/>
      <point x="1069" y="192"/>
      <point x="1035" y="134"/>
      <point x="708" y="134" type="curve" smooth="yes"/>
      <point x="350" y="134"/>
      <point x="349" y="181"/>
      <point x="349" y="535" type="curve" smooth="yes"/>
      <point x="349" y="1490" type="line"/>
    </contour>
    <contour>
      <point x="709" y="1490" type="move" name="top"/>
    </contour>
    <contour>
      <point x="784" y="0" type="move" name="ogonek"/>
    </contour>
    <contour>
      <point x="709" y="0" type="move" name="bot"/>
    </contour>
  </outline>
</glyph>
<glyph name="X" format="1">
  <advance width="1268"/>
  <unicode hex="0058"/>
  <outline>
    <contour>
      <point x="996" y="1490" type="line"/>
      <point x="617" y="890" type="line"/>
      <point x="543" y="796" type="line"/>
      <point x="44" y="0" type="line"/>
      <point x="265" y="0" type="line"/>
      <point x="658" y="620" type="line"/>
      <point x="735" y="722" type="line"/>
      <point x="1213" y="1490" type="line"/>
    </contour>
    <contour>
      <point x="85" y="1490" type="line"/>
      <point x="1007" y="0" type="line"/>
      <point x="1219" y="0" type="line"/>
      <point x="292" y="1490" type="line"/>
    </contour>
  </outline>
</glyph>
<glyph name="Y" format="1">
  <advance width="1219"/>
  <unicode hex="0059"/>
  <outline>
    <contour>
      <point x="973" y="1490" type="line"/>
      <point x="612" y="728" type="line"/>
      <point x="610" y="728" type="line"/>
      <point x="261" y="1490" type="line"/>
      <point x="50" y="1490" type="line"/>
      <point x="503" y="518" type="line"/>
      <point x="503" y="0" type="line"/>
      <point x="705" y="0" type="line"/>
      <point x="705" y="518" type="line"/>
      <point x="1177" y="1490" type="line"/>
    </contour>
    <contour>
      <point x="622" y="1490" type="move" name="top"/>
    </contour>
    <contour>
      <point x="622" y="0" type="move" name="bot"/>
    </contour>
  </outline>
</glyph>
<glyph name="Z" format="1">
  <advance width="1116"/>
  <unicode hex="005A"/>
  <outline>
    <contour>
      <point x="150" y="1490" type="line"/>
      <point x="167" y="1338" type="line"/>
      <point x="825" y="1338" type="line"/>
      <point x="111" y="176" type="line"/>
      <point x="121" y="0" type="line"/>
      <point x="1010" y="0" type="line"/>
      <point x="1010" y="151" type="line"/>
      <point x="325" y="151" type="line"/>
      <point x="1025" y="1311" type="line"/>
      <point x="1014" y="1490" type="line"/>
    </contour>
    <contour>
      <point x="562" y="1490" type="move" name="top"/>
    </contour>
    <contour>
      <point x="562" y="0" type="move" name="bot"/>
    </contour>
  </outline>
</glyph>
<glyph name="bracketleft" format="1">
  <advance width="723"/>
  <unicode hex="005B"/>
  <outline>
    <contour>
      <point x="201" y="1638" type="line"/>
      <point x="201" y="-272" type="line"/>
      <point x="647" y="-272" type="line"/>
      <point x="647" y="-120" type="line"/>
      <point x="392" y="-120" type="line"/>
      <point x="392" y="1487" type="line"/>
      <point x="647" y="1487" type="line"/>
      <point x="647" y="1638" type="line"/>
    </contour>
  </outline>
</glyph>
<glyph name="asciicircum" format="1">
  <advance width="972"/>
  <unicode hex="005E"/>
  <outline>
    <contour>
      <point x="487" y="1490" type="curve" smooth="yes"/>
      <point x="441" y="1490"/>
      <point x="413" y="1475"/>
      <point x="393" y="1434" type="curve" smooth="yes"/>
      <point x="49" y="745" type="line" smooth="yes"/>
      <point x="22" y="690"/>
      <point x="107" y="656"/>
      <point x="136" y="705" type="curve" smooth="yes"/>
      <point x="487" y="1307" type="line"/>
      <point x="838" y="705" type="line" smooth="yes"/>
      <point x="867" y="656"/>
      <point x="952" y="690"/>
      <point x="925" y="745" type="curve" smooth="yes"/>
      <point x="581" y="1434" type="line" smooth="yes"/>
      <point x="561" y="1475"/>
      <point x="533" y="1490"/>
    </contour>
  </outline>
</glyph>
<glyph name="underscore" format="1">
  <advance width="849"/>
  <unicode hex="005F"/>
  <outline>
    <contour>
      <point x="6" y="-100" type="line"/>
      <point x="6" y="-227" type="line"/>
      <point x="843" y="-227" type="line"/>
      <point x="843" y="-100" type="line"/>
    </contour>
  </outline>
</glyph>
<glyph name="b" format="1">
  <advance width="1194"/>
  <unicode hex="0062"/>
  <outline>
    <contour>
      <point x="160" y="1526" type="line"/>
      <point x="160" y="0" type="line"/>
      <point x="340" y="0" type="line"/>
      <point x="358" y="138" type="line"/>
      <point x="395" y="38"/>
      <point x="503" y="-20"/>
      <point x="677" y="-20" type="curve" smooth="yes"/>
      <point x="1014" y="-20"/>
      <point x="1057" y="133"/>
      <point x="1061" y="506" type="curve" smooth="yes"/>
      <point x="1062" y="611" type="line" smooth="yes"/>
      <point x="1065" y="921"/>
      <point x="1028" y="1117"/>
      <point x="661" y="1117" type="curve" smooth="yes"/>
      <point x="492" y="1117"/>
      <point x="401" y="1067"/>
      <point x="357" y="965" type="curve"/>
      <point x="357" y="1526" type="line"/>
    </contour>
    <contour>
      <point x="615" y="117" type="curve" smooth="yes"/>
      <point x="427" y="117"/>
      <point x="357" y="158"/>
      <point x="357" y="269" type="curve" smooth="yes"/>
      <point x="357" y="762" type="line" smooth="yes"/>
      <point x="357" y="957"/>
      <point x="396" y="979"/>
      <point x="614" y="979" type="curve" smooth="yes"/>
      <point x="862" y="979"/>
      <point x="866" y="939"/>
      <point x="866" y="750" type="curve" smooth="yes"/>
      <point x="866" y="344" type="line" smooth="yes"/>
      <point x="866" y="134"/>
      <point x="827" y="117"/>
    </contour>
    <contour>
      <point x="597" y="1097" type="move" name="top"/>
    </contour>
  </outline>
</glyph>
<glyph name="c" format="1">
  <advance width="1094"/>
  <unicode hex="0063"/>
  <outline>
    <contour>
      <point x="171" y="1117"/>
      <point x="132" y="1013"/>
      <point x="132" y="619" type="curve" smooth="yes"/>
      <point x="132" y="516" type="line" smooth="yes"/>
      <point x="135" y="114"/>
      <point x="171" y="-20"/>
      <point x="576" y="-20" type="curve" smooth="yes"/>
      <point x="894" y="-20"/>
      <point x="965" y="39"/>
      <point x="985" y="251" type="curve" smooth="yes"/>
      <point x="993" y="337" type="line"/>
      <point x="829" y="356" type="line"/>
      <point x="817" y="223" type="line" smooth="yes"/>
      <point x="809" y="132"/>
      <point x="774" y="118"/>
      <point x="567" y="118" type="curve" smooth="yes"/>
      <point x="323" y="118"/>
      <point x="319" y="164"/>
      <point x="319" y="438" type="curve" smooth="yes"/>
      <point x="319" y="719" type="line" smooth="yes"/>
      <point x="319" y="924"/>
      <point x="328" y="978"/>
      <point x="585" y="978" type="curve" smooth="yes"/>
      <point x="801" y="978"/>
      <point x="799" y="943"/>
      <point x="810" y="873" type="curve" smooth="yes"/>
      <point x="831" y="743" type="line"/>
      <point x="993" y="770" type="line"/>
      <point x="977" y="891" type="line" smooth="yes"/>
      <point x="952" y="1081"/>
      <point x="876" y="1117"/>
      <point x="586" y="1117" type="curve" smooth="yes"/>
    </contour>
    <contour>
      <point x="534" y="1097" type="move" name="top"/>
    </contour>
    <contour>
      <point x="550" y="0" type="move" name="bot"/>
    </contour>
  </outline>
</glyph>
<glyph name="d" format="1">
  <advance width="1193"/>
  <unicode hex="0064"/>
  <outline>
    <contour>
      <point x="836" y="1526" type="line"/>
      <point x="836" y="973" type="line"/>
      <point x="795" y="1072"/>
      <point x="706" y="1117"/>
      <point x="533" y="1117" type="curve" smooth="yes"/>
      <point x="175" y="1117"/>
      <point x="132" y="957"/>
      <point x="132" y="566" type="curve" smooth="yes"/>
      <point x="132" y="502" type="line" smooth="yes"/>
      <point x="132" y="168"/>
      <point x="164" y="-20"/>
      <point x="515" y="-20" type="curve" smooth="yes"/>
      <point x="689" y="-20"/>
      <point x="794" y="38"/>
      <point x="834" y="138" type="curve"/>
      <point x="853" y="0" type="line"/>
      <point x="1033" y="0" type="line"/>
      <point x="1033" y="1526" type="line"/>
    </contour>
    <contour>
      <point x="579" y="117" type="curve" smooth="yes"/>
      <point x="330" y="117"/>
      <point x="331" y="193"/>
      <point x="330" y="395" type="curve" smooth="yes"/>
      <point x="329" y="706" type="line" smooth="yes"/>
      <point x="328" y="932"/>
      <point x="363" y="979"/>
      <point x="579" y="979" type="curve" smooth="yes"/>
      <point x="778" y="979"/>
      <point x="836" y="943"/>
      <point x="836" y="827" type="curve" smooth="yes"/>
      <point x="836" y="255" type="line" smooth="yes"/>
      <point x="836" y="150"/>
      <point x="762" y="117"/>
    </contour>
    <contour>
      <point x="908" y="1319" type="move" name="mid"/>
    </contour>
    <contour>
      <point x="943" y="1097" type="move" name="caron.alt"/>
    </contour>
    <contour>
      <point x="599" y="1097" type="move" name="top"/>
    </contour>
  </outline>
</glyph>
<glyph name="e" format="1">
  <advance width="1136"/>
  <unicode hex="0065"/>
  <outline>
    <contour>
      <point x="594" y="-15" type="curve" smooth="yes"/>
      <point x="863" y="-15"/>
      <point x="986" y="24"/>
      <point x="991" y="235" type="curve" smooth="yes"/>
      <point x="993" y="326" type="line"/>
      <point x="839" y="334" type="line"/>
      <point x="829" y="212" type="line" smooth="yes"/>
      <point x="824" y="153"/>
      <point x="773" y="122"/>
      <point x="602" y="122" type="curve" smooth="yes"/>
      <point x="402" y="122"/>
      <point x="341" y="142"/>
      <point x="336" y="232" type="curve" smooth="yes"/>
      <point x="330" y="336"/>
      <point x="329" y="442"/>
      <point x="328" y="550" type="curve"/>
      <point x="1017" y="550" type="line" smooth="yes"/>
      <point x="1021.69697123" y="629.055929181" type="line"/>
      <point x="1017.48270954" y="1039.24937214"/>
      <point x="964.752712071" y="1128.0"/>
      <point x="586" y="1128" type="curve" smooth="yes"/>
      <point x="175.98301363" y="1128.0"/>
      <point x="132" y="1031"/>
      <point x="132" y="594" type="curve" smooth="yes"/>
      <point x="132" y="461" type="line" smooth="yes"/>
      <point x="132" y="74"/>
      <point x="216" y="-15"/>
    </contour>
    <contour>
      <point x="329" y="655" type="line"/>
      <point x="330.882990122" y="730.947268248"/>
      <point x="328.432405823" y="827.774485978"/>
      <point x="346.128480583" y="895.532085887" type="curve" smooth="yes"/>
      <point x="366.199454071" y="972.383083056"/>
      <point x="387.92715406" y="991.0"/>
      <point x="585" y="991" type="curve" smooth="yes"/>
      <point x="755" y="991"/>
      <point x="809" y="971"/>
      <point x="815" y="889" type="curve" smooth="yes"/>
      <point x="821" y="813"/>
      <point x="824" y="735"/>
      <point x="825" y="655" type="curve"/>
    </contour>
    <contour>
      <point x="655.0" y="0.0" type="move" name="ogonek"/>
    </contour>
    <contour>
      <point x="551.0" y="1097.0" type="move" name="top"/>
    </contour>
    <contour>
      <point x="572.0" y="0.0" type="move" name="bot"/>
    </contour>
  </outline>
</glyph>
<glyph name="f" format="1">
  <advance width="715"/>
  <unicode hex="0066"/>
  <outline>
    <contour>
      <point x="253" y="1510"/>
      <point x="244" y="1404"/>
      <point x="244" y="1097" type="curve"/>
      <point x="115" y="1097" type="line"/>
      <point x="115" y="984" type="line"/>
      <point x="244" y="984" type="line"/>
      <point x="244" y="0" type="line"/>
      <point x="441" y="0" type="line"/>
      <point x="441" y="984" type="line"/>
      <point x="639" y="984" type="line"/>
      <point x="639" y="1097" type="line"/>
      <point x="441" y="1097" type="line"/>
      <point x="440" y="1223" type="line" smooth="yes"/>
      <point x="440" y="1347"/>
      <point x="449" y="1353"/>
      <point x="518" y="1353" type="curve" smooth="yes"/>
      <point x="574" y="1353"/>
      <point x="609" y="1352"/>
      <point x="645" y="1350" type="curve"/>
      <point x="645" y="1493" type="line"/>
      <point x="582" y="1505"/>
      <point x="526" y="1510"/>
      <point x="475" y="1510" type="curve" smooth="yes"/>
    </contour>
    <contour>
      <point x="354" y="1367" type="move" name="top"/>
    </contour>
  </outline>
</glyph>
<glyph name="g" format="1">
  <advance width="1169"/>
  <unicode hex="0067"/>
  <outline>
    <contour>
      <point x="168" y="1117"/>
      <point x="132" y="995"/>
      <point x="132" y="612" type="curve" smooth="yes"/>
      <point x="132" y="505" type="line" smooth="yes"/>
      <point x="132" y="155"/>
      <point x="145" y="17"/>
      <point x="548" y="17" type="curve" smooth="yes"/>
      <point x="709" y="17"/>
      <point x="791" y="58"/>
      <point x="827" y="151" type="curve"/>
      <point x="827" y="-97" type="line" smooth="yes"/>
      <point x="827" y="-197"/>
      <point x="805" y="-260"/>
      <point x="557" y="-260" type="curve" smooth="yes"/>
      <point x="451" y="-260"/>
      <point x="363" y="-249"/>
      <point x="291" y="-229" type="curve"/>
      <point x="278" y="-365" type="line"/>
      <point x="357" y="-393"/>
      <point x="461" y="-406"/>
      <point x="590" y="-406" type="curve" smooth="yes"/>
      <point x="961" y="-406"/>
      <point x="1025" y="-284"/>
      <point x="1025" y="90" type="curve" smooth="yes"/>
      <point x="1026" y="1097" type="line"/>
      <point x="847" y="1097" type="line"/>
      <point x="828" y="975" type="line"/>
      <point x="779" y="1082"/>
      <point x="674" y="1117"/>
      <point x="503" y="1117" type="curve" smooth="yes"/>
    </contour>
    <contour>
      <point x="595" y="154" type="curve" smooth="yes"/>
      <point x="279.009656853" y="154.0"/>
      <point x="332.56489499" y="260.760448303"/>
      <point x="329.334071717" y="386.611896688" type="curve" smooth="yes"/>
      <point x="326.461759691" y="498.49812448"/>
      <point x="327.0" y="606.676895589"/>
      <point x="327" y="738" type="curve" smooth="yes"/>
      <point x="327" y="955"/>
      <point x="355" y="982"/>
      <point x="575" y="982" type="curve" smooth="yes"/>
      <point x="771" y="982"/>
      <point x="829" y="942"/>
      <point x="829" y="833" type="curve" smooth="yes"/>
      <point x="828" y="243" type="line" smooth="yes"/>
      <point x="828" y="171"/>
      <point x="700" y="154"/>
    </contour>
    <contour>
      <point x="571" y="1097" type="move" name="top"/>
    </contour>
    <contour>
      <point x="591" y="0" type="move" name="bot"/>
    </contour>
  </outline>
</glyph>
<glyph name="h" format="1">
  <advance width="1182"/>
  <unicode hex="0068"/>
  <outline>
    <contour>
      <point x="160" y="1526" type="line"/>
      <point x="160" y="0" type="line"/>
      <point x="358" y="0" type="line"/>
      <point x="358" y="874" type="line" smooth="yes"/>
      <point x="358" y="947"/>
      <point x="489" y="979"/>
      <point x="589" y="979" type="curve" smooth="yes"/>
      <point x="833" y="979"/>
      <point x="838" y="949"/>
      <point x="838" y="655" type="curve" smooth="yes"/>
      <point x="838" y="0" type="line"/>
      <point x="1035" y="0" type="line"/>
      <point x="1036" y="725" type="line" smooth="yes"/>
      <point x="1036" y="959"/>
      <point x="1010" y="1117"/>
      <point x="656" y="1117" type="curve" smooth="yes"/>
      <point x="507" y="1117"/>
      <point x="406" y="1079"/>
      <point x="358" y="1003" type="curve"/>
      <point x="358" y="1526" type="line"/>
    </contour>
    <contour>
      <point x="590" y="549" type="move" name="center"/>
    </contour>
    <contour>
      <point x="674" y="1299" type="move" name="top"/>
    </contour>
    <contour>
      <point x="305" y="1315" type="move" name="mid"/>
    </contour>
    <contour>
      <point x="592" y="0" type="move" name="bot"/>
    </contour>
  </outline>
</glyph>
<glyph name="i" format="1">
  <advance width="547"/>
  <unicode hex="0069"/>
  <outline>
    <component base="dotlessi" xOffset="22"/>
    <component base="dotaccent" xOffset="48"/>
    <contour>
      <point x="46" y="0" type="move" name="ogonek"/>
    </contour>
  </outline>
</glyph>
<glyph name="k" format="1">
  <advance width="1074"/>
  <unicode hex="006B"/>
  <outline>
    <contour>
      <point x="160" y="1526" type="line"/>
      <point x="160" y="0" type="line"/>
      <point x="358" y="0" type="line"/>
      <point x="358" y="469" type="line"/>
      <point x="450" y="572" type="line"/>
      <point x="832" y="0" type="line"/>
      <point x="1049" y="0" type="line"/>
      <point x="600" y="658" type="line"/>
      <point x="1013" y="1097" type="line"/>
      <point x="789" y="1097" type="line"/>
      <point x="528" y="812" type="line" smooth="yes"/>
      <point x="471" y="750"/>
      <point x="413" y="685"/>
      <point x="357" y="625" type="curve"/>
      <point x="357" y="674"/>
      <point x="358" y="732"/>
      <point x="358" y="782" type="curve" smooth="yes"/>
      <point x="358" y="1526" type="line"/>
    </contour>
    <contour>
      <point x="543" y="0" type="move" name="bot"/>
    </contour>
    <contour>
      <point x="537" y="0" type="move" name="bottom"/>
    </contour>
    <contour>
      <point x="653" y="1297" type="move" name="top"/>
    </contour>
  </outline>
</glyph>
<glyph name="l" format="1">
  <advance width="509"/>
  <unicode hex="006C"/>
  <outline>
    <contour>
      <point x="170" y="1526" type="line"/>
      <point x="170" y="0" type="line"/>
      <point x="367" y="0" type="line"/>
      <point x="367" y="1526" type="line"/>
    </contour>
    <contour>
      <point x="287" y="1097" type="move" name="caron.alt"/>
    </contour>
    <contour>
      <point x="269" y="0" type="move" name="bot"/>
    </contour>
    <contour>
      <point x="268" y="1490" type="move" name="top"/>
    </contour>
    <contour>
      <point x="269" y="1097" type="move" name="mid"/>
    </contour>
    <contour>
      <point x="268" y="0" type="move" name="bottom"/>
    </contour>
  </outline>
</glyph>
<glyph name="m" format="1">
  <advance width="1762"/>
  <unicode hex="006D"/>
  <outline>
    <contour>
      <point x="1097" y="1117"/>
      <point x="995" y="1075"/>
      <point x="942" y="972" type="curve"/>
      <point x="900" y="1084"/>
      <point x="811" y="1117"/>
      <point x="664" y="1117" type="curve" smooth="yes"/>
      <point x="518" y="1117"/>
      <point x="415" y="1090"/>
      <point x="359" y="977" type="curve"/>
      <point x="340" y="1097" type="line"/>
      <point x="160" y="1097" type="line"/>
      <point x="160" y="0" type="line"/>
      <point x="357" y="0" type="line"/>
      <point x="358" y="897" type="line" smooth="yes"/>
      <point x="358" y="970"/>
      <point x="482" y="990"/>
      <point x="570" y="990" type="curve" smooth="yes"/>
      <point x="788" y="990"/>
      <point x="793" y="936"/>
      <point x="793" y="730" type="curve" smooth="yes"/>
      <point x="793" y="0" type="line"/>
      <point x="990" y="0" type="line"/>
      <point x="989" y="784" type="line" smooth="yes"/>
      <point x="989" y="826"/>
      <point x="989" y="862"/>
      <point x="999" y="891" type="curve" smooth="yes"/>
      <point x="1021" y="958"/>
      <point x="1082" y="990"/>
      <point x="1239" y="990" type="curve" smooth="yes"/>
      <point x="1418" y="990"/>
      <point x="1419" y="898"/>
      <point x="1419" y="666" type="curve" smooth="yes"/>
      <point x="1419" y="0" type="line"/>
      <point x="1616" y="0" type="line"/>
      <point x="1616" y="673" type="line" smooth="yes"/>
      <point x="1616" y="1026"/>
      <point x="1560" y="1117"/>
      <point x="1258" y="1117" type="curve" smooth="yes"/>
    </contour>
    <contour>
      <point x="885" y="0" type="move" name="bot"/>
    </contour>
    <contour>
      <point x="885" y="1097" type="move" name="top"/>
    </contour>
  </outline>
</glyph>
<glyph name="n" format="1">
  <advance width="1174"/>
  <unicode hex="006E"/>
  <outline>
    <contour>
      <point x="540" y="1117"/>
      <point x="396" y="1091"/>
      <point x="359" y="974" type="curve"/>
      <point x="340" y="1097" type="line"/>
      <point x="160" y="1097" type="line"/>
      <point x="160" y="0" type="line"/>
      <point x="357" y="0" type="line"/>
      <point x="357" y="780" type="line" smooth="yes"/>
      <point x="357" y="924"/>
      <point x="406" y="979"/>
      <point x="642" y="979" type="curve" smooth="yes"/>
      <point x="809" y="979"/>
      <point x="831" y="904"/>
      <point x="831" y="723" type="curve" smooth="yes"/>
      <point x="831" y="0" type="line"/>
      <point x="1028" y="0" type="line"/>
      <point x="1028" y="725" type="line" smooth="yes"/>
      <point x="1028" y="968"/>
      <point x="973" y="1117"/>
      <point x="686" y="1117" type="curve" smooth="yes"/>
    </contour>
    <contour>
      <point x="590" y="1097" type="move" name="top"/>
    </contour>
    <contour>
      <point x="591" y="0" type="move" name="bot"/>
    </contour>
  </outline>
</glyph>
<glyph name="o" format="1">
  <advance width="1188"/>
  <unicode hex="006F"/>
  <outline>
    <contour>
      <point x="186" y="1117"/>
      <point x="132" y="1032"/>
      <point x="132" y="585" type="curve" smooth="yes"/>
      <point x="132" y="557" type="line" smooth="yes"/>
      <point x="132" y="101"/>
      <point x="158" y="-20"/>
      <point x="593" y="-20" type="curve" smooth="yes"/>
      <point x="1029" y="-20"/>
      <point x="1056" y="100"/>
      <point x="1056" y="557" type="curve" smooth="yes"/>
      <point x="1056" y="586" type="line" smooth="yes"/>
      <point x="1056" y="1033"/>
      <point x="1002" y="1117"/>
      <point x="594" y="1117" type="curve" smooth="yes"/>
    </contour>
    <contour>
      <point x="595" y="118" type="curve" smooth="yes"/>
      <point x="418" y="118"/>
      <point x="340" y="137"/>
      <point x="340" y="210" type="curve"/>
      <point x="339" y="884" type="line"/>
      <point x="339" y="978"/>
      <point x="475" y="978"/>
      <point x="594" y="978" type="curve" smooth="yes"/>
      <point x="713" y="978"/>
      <point x="849" y="978"/>
      <point x="849" y="884" type="curve" smooth="yes"/>
      <point x="848" y="210" type="line" smooth="yes"/>
      <point x="848" y="135"/>
      <point x="772" y="118"/>
    </contour>
    <contour>
      <point x="595" y="1097" type="move" name="top"/>
    </contour>
    <contour>
      <point x="594" y="0" type="move" name="bot"/>
    </contour>
    <contour>
      <point x="672" y="0" type="move" name="ogonek"/>
    </contour>
  </outline>
</glyph>
<glyph name="p" format="1">
  <advance width="1192"/>
  <unicode hex="0070"/>
  <outline>
    <contour>
      <point x="160" y="-387" type="line"/>
      <point x="357" y="-372" type="line"/>
      <point x="357" y="98" type="line"/>
      <point x="382" y="21"/>
      <point x="486" y="-20"/>
      <point x="659" y="-20" type="curve" smooth="yes"/>
      <point x="1018" y="-20"/>
      <point x="1060" y="140"/>
      <point x="1060" y="541" type="curve" smooth="yes"/>
      <point x="1060" y="592" type="line" smooth="yes"/>
      <point x="1060" y="964"/>
      <point x="1017" y="1117"/>
      <point x="678" y="1117" type="curve" smooth="yes"/>
      <point x="503" y="1117"/>
      <point x="398" y="1076"/>
      <point x="358" y="976" type="curve"/>
      <point x="339" y="1097" type="line"/>
      <point x="160" y="1097" type="line"/>
    </contour>
    <contour>
      <point x="613" y="117" type="curve" smooth="yes"/>
      <point x="395" y="117"/>
      <point x="353" y="176"/>
      <point x="353" y="449" type="curve" smooth="yes"/>
      <point x="353" y="693" type="line" smooth="yes"/>
      <point x="353" y="946"/>
      <point x="359" y="979"/>
      <point x="613" y="979" type="curve" smooth="yes"/>
      <point x="896" y="979"/>
      <point x="865" y="869"/>
      <point x="865" y="730" type="curve" smooth="yes"/>
      <point x="865" y="415" type="line" smooth="yes"/>
      <point x="865" y="151"/>
      <point x="859" y="117"/>
    </contour>
    <contour>
      <point x="596" y="0" type="move" name="bot"/>
    </contour>
    <contour>
      <point x="596" y="1097" type="move" name="top"/>
    </contour>
  </outline>
</glyph>
<glyph name="q" format="1">
  <advance width="1192"/>
  <unicode hex="0071"/>
  <outline>
    <contour>
      <point x="203" y="1117"/>
      <point x="160" y="964"/>
      <point x="160" y="592" type="curve" smooth="yes"/>
      <point x="160" y="541" type="line" smooth="yes"/>
      <point x="160" y="140"/>
      <point x="202" y="-20"/>
      <point x="561" y="-20" type="curve" smooth="yes"/>
      <point x="734" y="-20"/>
      <point x="838" y="26"/>
      <point x="863" y="103" type="curve"/>
      <point x="863" y="-372" type="line"/>
      <point x="1060" y="-387" type="line"/>
      <point x="1060" y="1097" type="line"/>
      <point x="881" y="1097" type="line"/>
      <point x="862" y="976" type="line"/>
      <point x="822" y="1076"/>
      <point x="717" y="1117"/>
      <point x="542" y="1117" type="curve" smooth="yes"/>
    </contour>
    <contour>
      <point x="607" y="117" type="curve" smooth="yes"/>
      <point x="361" y="117"/>
      <point x="355" y="151"/>
      <point x="355" y="415" type="curve" smooth="yes"/>
      <point x="355" y="741" type="line" smooth="yes"/>
      <point x="355" y="869"/>
      <point x="324" y="979"/>
      <point x="607" y="979" type="curve" smooth="yes"/>
      <point x="861" y="979"/>
      <point x="867" y="946"/>
      <point x="867" y="693" type="curve" smooth="yes"/>
      <point x="867" y="449" type="line" smooth="yes"/>
      <point x="867" y="181"/>
      <point x="825" y="117"/>
    </contour>
  </outline>
</glyph>
<glyph name="r" format="1">
  <advance width="739"/>
  <unicode hex="0072"/>
  <outline>
    <contour>
      <point x="553" y="1122"/>
      <point x="411" y="1086"/>
      <point x="363" y="974" type="curve"/>
      <point x="343" y="1097" type="line"/>
      <point x="164" y="1097" type="line"/>
      <point x="164" y="0" type="line"/>
      <point x="361" y="0" type="line"/>
      <point x="361" y="471" type="line" smooth="yes"/>
      <point x="361" y="541"/>
      <point x="354" y="624"/>
      <point x="354" y="704" type="curve" smooth="yes"/>
      <point x="354" y="915"/>
      <point x="492" y="962"/>
      <point x="645" y="942" type="curve"/>
      <point x="653" y="1109" type="line"/>
    </contour>
    <contour>
      <point x="367" y="1097" type="move" name="top"/>
    </contour>
    <contour>
      <point x="374" y="0" type="move" name="bot"/>
    </contour>
  </outline>
</glyph>
<glyph name="s" format="1">
  <advance width="1034"/>
  <unicode hex="0073"/>
  <outline>
    <contour>
      <point x="566" y="-20" type="curve" smooth="yes"/>
      <point x="838" y="-20"/>
      <point x="950" y="44"/>
      <point x="950" y="299" type="curve" smooth="yes"/>
      <point x="950" y="569"/>
      <point x="914" y="618"/>
      <point x="582" y="653" type="curve" smooth="yes"/>
      <point x="496" y="662" type="line" smooth="yes"/>
      <point x="310" y="681"/>
      <point x="304" y="692"/>
      <point x="304" y="823" type="curve" smooth="yes"/>
      <point x="304" y="883"/>
      <point x="306.25" y="922.25"/>
      <point x="334.75" y="946.5" type="curve" smooth="yes"/>
      <point x="363.25" y="970.75"/>
      <point x="418" y="980"/>
      <point x="523" y="980" type="curve" smooth="yes"/>
      <point x="631" y="980"/>
      <point x="690" y="978"/>
      <point x="723" y="957" type="curve" smooth="yes"/>
      <point x="757" y="937"/>
      <point x="765" y="899"/>
      <point x="771" y="828" type="curve"/>
      <point x="905" y="869" type="line"/>
      <point x="905" y="1103"/>
      <point x="759" y="1117"/>
      <point x="530" y="1117" type="curve" smooth="yes"/>
      <point x="241" y="1117"/>
      <point x="124" y="1065"/>
      <point x="124" y="827" type="curve" smooth="yes"/>
      <point x="124" y="556"/>
      <point x="207" y="533"/>
      <point x="498" y="505" type="curve" smooth="yes"/>
      <point x="589" y="496" type="line" smooth="yes"/>
      <point x="742" y="481"/>
      <point x="770" y="467"/>
      <point x="770" y="315" type="curve" smooth="yes"/>
      <point x="770" y="253"/>
      <point x="769" y="203.5"/>
      <point x="741.25" y="169.5" type="curve" smooth="yes"/>
      <point x="713.5" y="135.5"/>
      <point x="659" y="117"/>
      <point x="552" y="117" type="curve" smooth="yes"/>
      <point x="421" y="117"/>
      <point x="355" y="119"/>
      <point x="321" y="146" type="curve" smooth="yes"/>
      <point x="286" y="172"/>
      <point x="283" y="224"/>
      <point x="275" y="322" type="curve"/>
      <point x="120" y="282" type="line"/>
      <point x="120" y="-10"/>
      <point x="288" y="-20"/>
    </contour>
    <contour>
      <point x="493" y="1097" type="move" name="top"/>
    </contour>
    <contour>
      <point x="508" y="0" type="move" name="bot"/>
    </contour>
  </outline>
</glyph>
<glyph name="t" format="1">
  <advance width="821"/>
  <unicode hex="0074"/>
  <outline>
    <contour>
      <point x="268" y="1445" type="line"/>
      <point x="268" y="1097" type="line"/>
      <point x="99" y="1097" type="line"/>
      <point x="99" y="985" type="line"/>
      <point x="268" y="985" type="line"/>
      <point x="268" y="238" type="line" smooth="yes"/>
      <point x="268" y="42"/>
      <point x="367" y="-12"/>
      <point x="521" y="-15" type="curve" smooth="yes"/>
      <point x="582" y="-16"/>
      <point x="650" y="-10"/>
      <point x="725" y="-1" type="curve"/>
      <point x="729" y="139" type="line"/>
      <point x="527" y="115"/>
      <point x="464" y="129"/>
      <point x="464" y="235" type="curve" smooth="yes"/>
      <point x="464" y="985" type="line"/>
      <point x="686" y="985" type="line"/>
      <point x="686" y="1097" type="line"/>
      <point x="464" y="1097" type="line"/>
      <point x="464" y="1445" type="line"/>
    </contour>
    <contour>
      <point x="327" y="1257" type="move" name="caron.alt"/>
    </contour>
    <contour>
      <point x="395" y="671" type="move" name="mid"/>
    </contour>
    <contour>
      <point x="371" y="1249" type="move" name="top"/>
    </contour>
    <contour>
      <point x="463" y="0" type="move" name="bot"/>
    </contour>
  </outline>
</glyph>
<glyph name="u" format="1">
  <advance width="1176"/>
  <unicode hex="0075"/>
  <outline>
    <contour>
      <point x="817" y="1097" type="line"/>
      <point x="817" y="383" type="line" smooth="yes"/>
      <point x="817" y="235"/>
      <point x="848" y="117"/>
      <point x="577" y="117" type="curve" smooth="yes"/>
      <point x="319" y="117"/>
      <point x="343" y="175"/>
      <point x="343" y="455" type="curve" smooth="yes"/>
      <point x="343" y="1097" type="line"/>
      <point x="146" y="1097" type="line"/>
      <point x="146" y="449" type="line" smooth="yes"/>
      <point x="146" y="108"/>
      <point x="205" y="-20"/>
      <point x="489" y="-20" type="curve" smooth="yes"/>
      <point x="647" y="-20"/>
      <point x="779" y="29"/>
      <point x="816" y="140" type="curve"/>
      <point x="834" y="-1" type="line"/>
      <point x="1016" y="-1" type="line"/>
      <point x="1016" y="1097" type="line"/>
    </contour>
    <contour>
      <point x="580" y="1097" type="move" name="top"/>
    </contour>
    <contour>
      <point x="910" y="0" type="move" name="ogonek"/>
    </contour>
    <contour>
      <point x="584" y="0" type="move" name="bot"/>
    </contour>
  </outline>
</glyph>
<glyph name="v" format="1">
  <advance width="1037"/>
  <unicode hex="0076"/>
  <outline>
    <contour>
      <point x="790.0" y="1097.0" type="line"/>
      <point x="516" y="172" type="line"/>
      <point x="516" y="172"/>
      <point x="515.0" y="172.0"/>
      <point x="515.0" y="172.0" type="curve"/>
      <point x="226.0" y="1097.0" type="line"/>
      <point x="41.0" y="1097.0" type="line"/>
      <point x="407.0" y="0.0" type="line"/>
      <point x="621.0" y="0.0" type="line"/>
      <point x="993.0" y="1097.0" type="line"/>
    </contour>
  </outline>
</glyph>
<glyph name="w" format="1">
  <advance width="1594"/>
  <unicode hex="0077"/>
  <outline>
    <contour>
      <point x="373" y="0" type="line"/>
      <point x="575" y="0" type="line"/>
      <point x="803" y="857" type="line"/>
      <point x="803" y="857"/>
      <point x="804" y="857"/>
      <point x="804" y="857" type="curve"/>
      <point x="1041" y="0" type="line"/>
      <point x="1223" y="0" type="line"/>
      <point x="1509" y="1097" type="line"/>
      <point x="1326" y="1097" type="line"/>
      <point x="1125" y="215" type="line"/>
      <point x="1125" y="215"/>
      <point x="1123" y="215"/>
      <point x="1123" y="215" type="curve"/>
      <point x="888" y="1097" type="line"/>
      <point x="711" y="1097" type="line"/>
      <point x="482" y="215" type="line"/>
      <point x="482" y="215"/>
      <point x="481" y="215"/>
      <point x="481" y="215" type="curve"/>
      <point x="265" y="1097" type="line"/>
      <point x="85" y="1097" type="line"/>
    </contour>
    <contour>
      <point x="800" y="1097" type="move" name="top"/>
    </contour>
    <contour>
      <point x="809" y="0" type="move" name="bot"/>
    </contour>
  </outline>
</glyph>
<glyph name="y" format="1">
  <advance width="1026"/>
  <unicode hex="0079"/>
  <outline>
    <contour>
      <point x="805" y="1097" type="line"/>
      <point x="544" y="217" type="line"/>
      <point x="543" y="217" type="line"/>
      <point x="237" y="1097" type="line"/>
      <point x="42" y="1097" type="line"/>
      <point x="462" y="8" type="line"/>
      <point x="441" y="-81"/>
      <point x="429" y="-139"/>
      <point x="404" y="-175" type="curve" smooth="yes"/>
      <point x="379" y="-212"/>
      <point x="342" y="-226"/>
      <point x="272" y="-226" type="curve" smooth="yes"/>
      <point x="240" y="-226"/>
      <point x="200" y="-223"/>
      <point x="152" y="-218" type="curve"/>
      <point x="138" y="-349" type="line"/>
      <point x="205" y="-355"/>
      <point x="261" y="-359"/>
      <point x="309" y="-359" type="curve" smooth="yes"/>
      <point x="484" y="-359"/>
      <point x="550" y="-301"/>
      <point x="632" y="-41" type="curve" smooth="yes"/>
      <point x="994" y="1097" type="line"/>
    </contour>
    <contour>
      <point x="526" y="1097" type="move" name="top"/>
    </contour>
    <contour>
      <point x="518" y="0" type="move" name="bot"/>
    </contour>
  </outline>
</glyph>
<glyph name="braceright" format="1">
  <advance width="851"/>
  <unicode hex="007D"/>
  <outline>
    <contour>
      <point x="84" y="-211" type="line"/>
      <point x="457" y="-211"/>
      <point x="523" y="-117"/>
      <point x="527" y="286" type="curve" smooth="yes"/>
      <point x="530" y="596"/>
      <point x="598" y="625"/>
      <point x="786" y="625" type="curve"/>
      <point x="786" y="802" type="line"/>
      <point x="598" y="802"/>
      <point x="530" y="831"/>
      <point x="527" y="1141" type="curve" smooth="yes"/>
      <point x="523" y="1544"/>
      <point x="457" y="1638"/>
      <point x="84" y="1638" type="curve"/>
      <point x="84" y="1514" type="line"/>
      <point x="333" y="1514"/>
      <point x="338" y="1466"/>
      <point x="338" y="1140" type="curve" smooth="yes"/>
      <point x="338" y="888"/>
      <point x="367" y="745"/>
      <point x="532" y="713" type="curve"/>
      <point x="367" y="682"/>
      <point x="338" y="539"/>
      <point x="338" y="287" type="curve" smooth="yes"/>
      <point x="338" y="-39"/>
      <point x="333" y="-87"/>
      <point x="84" y="-87" type="curve"/>
    </contour>
  </outline>
</glyph>
<glyph name="asciitilde" format="1">
  <advance width="1094"/>
  <unicode hex="007E"/>
  <outline>
    <contour>
      <point x="794" y="612" type="curve" smooth="yes"/>
      <point x="937" y="605"/>
      <point x="992" y="714"/>
      <point x="1021" y="887" type="curve"/>
      <point x="947" y="924" type="line"/>
      <point x="901" y="820"/>
      <point x="883" y="775"/>
      <point x="772" y="794" type="curve" smooth="yes"/>
      <point x="654" y="814"/>
      <point x="476" y="975"/>
      <point x="303" y="952" type="curve" smooth="yes"/>
      <point x="210" y="940"/>
      <point x="112" y="857"/>
      <point x="84" y="705" type="curve"/>
      <point x="153" y="663" type="line"/>
      <point x="183" y="756"/>
      <point x="223" y="792"/>
      <point x="306" y="786" type="curve" smooth="yes"/>
      <point x="441" y="776"/>
      <point x="636" y="620"/>
    </contour>
  </outline>
</glyph>
<glyph name="cent" format="1">
  <advance width="1357"/>
  <unicode hex="00A2"/>
  <outline>
    <contour>
      <point x="670" y="1772" type="line"/>
      <point x="670" y="1436" type="line"/>
      <point x="779" y="1436" type="line"/>
      <point x="779" y="1772" type="line"/>
    </contour>
    <contour>
      <point x="672" y="42" type="line"/>
      <point x="672" y="-264" type="line"/>
      <point x="781" y="-264" type="line"/>
      <point x="781" y="42" type="line"/>
    </contour>
    <component base="C"/>
  </outline>
</glyph>
<glyph name="sterling" format="1">
  <advance width="1497"/>
  <unicode hex="00A3"/>
  <outline>
    <contour>
      <point x="170" y="0" type="line"/>
      <point x="182" y="0"/>
      <point x="194" y="0"/>
      <point x="206" y="1" type="curve" smooth="yes"/>
      <point x="319" y="9"/>
      <point x="383" y="55"/>
      <point x="398" y="139" type="curve"/>
      <point x="428" y="6"/>
      <point x="608" y="0"/>
      <point x="857" y="0" type="curve" smooth="yes"/>
      <point x="1167" y="0"/>
      <point x="1265" y="23"/>
      <point x="1302" y="186" type="curve" smooth="yes"/>
      <point x="1316" y="248"/>
      <point x="1322" y="329"/>
      <point x="1327" y="437" type="curve"/>
      <point x="1172" y="465" type="line"/>
      <point x="1157" y="238" type="line" smooth="yes"/>
      <point x="1152" y="169"/>
      <point x="1033" y="161"/>
      <point x="877" y="161" type="curve" smooth="yes"/>
      <point x="651" y="161"/>
      <point x="516" y="176"/>
      <point x="500" y="227" type="curve"/>
      <point x="515" y="349"/>
      <point x="521" y="702"/>
      <point x="521" y="701" type="curve"/>
      <point x="997" y="701" type="line"/>
      <point x="997" y="840" type="line"/>
      <point x="521" y="840" type="line"/>
      <point x="521" y="962"/>
      <point x="504" y="1073"/>
      <point x="504" y="1225" type="curve" smooth="yes"/>
      <point x="504" y="1325"/>
      <point x="509" y="1371"/>
      <point x="814" y="1371" type="curve" smooth="yes"/>
      <point x="1043" y="1371"/>
      <point x="1089" y="1362"/>
      <point x="1097" y="1289" type="curve" smooth="yes"/>
      <point x="1105" y="1217"/>
      <point x="1106" y="1126"/>
      <point x="1109" y="1054" type="curve"/>
      <point x="1286" y="1077" type="line"/>
      <point x="1280" y="1188"/>
      <point x="1275" y="1275"/>
      <point x="1259" y="1343" type="curve" smooth="yes"/>
      <point x="1223" y="1491"/>
      <point x="1132" y="1542"/>
      <point x="850" y="1542" type="curve" smooth="yes"/>
      <point x="481" y="1542"/>
      <point x="304" y="1512"/>
      <point x="304" y="1201" type="curve" smooth="yes"/>
      <point x="304" y="1112"/>
      <point x="320" y="967"/>
      <point x="320" y="841" type="curve"/>
      <point x="172" y="841" type="line"/>
      <point x="172" y="702" type="line"/>
      <point x="324" y="702" type="line"/>
      <point x="323" y="291" type="line" smooth="yes"/>
      <point x="323" y="195"/>
      <point x="302" y="160"/>
      <point x="170" y="160" type="curve"/>
    </contour>
  </outline>
</glyph>
<glyph name="currency" format="1">
  <advance width="1178"/>
  <unicode hex="00A4"/>
  <outline>
    <contour>
      <point x="965" y="218" type="line"/>
      <point x="1029" y="287" type="line"/>
      <point x="890" y="457" type="line"/>
      <point x="970" y="533"/>
      <point x="1010" y="636"/>
      <point x="1010" y="765" type="curve" smooth="yes"/>
      <point x="1010" y="894"/>
      <point x="970" y="996"/>
      <point x="890" y="1071" type="curve"/>
      <point x="1028" y="1240" type="line"/>
      <point x="964" y="1310" type="line"/>
      <point x="812" y="1133" type="line"/>
      <point x="753" y="1170"/>
      <point x="678" y="1189"/>
      <point x="588" y="1189" type="curve" smooth="yes"/>
      <point x="497" y="1189"/>
      <point x="422" y="1169"/>
      <point x="363" y="1130" type="curve"/>
      <point x="213" y="1311" type="line"/>
      <point x="150" y="1241" type="line"/>
      <point x="288" y="1070" type="line"/>
      <point x="210" y="996"/>
      <point x="171" y="894"/>
      <point x="171" y="764" type="curve" smooth="yes"/>
      <point x="171" y="633"/>
      <point x="210" y="531"/>
      <point x="288" y="457" type="curve"/>
      <point x="149" y="287" type="line"/>
      <point x="212" y="218" type="line"/>
      <point x="362" y="398" type="line"/>
      <point x="421" y="365"/>
      <point x="497" y="349"/>
      <point x="590" y="349" type="curve" smooth="yes"/>
      <point x="679" y="349"/>
      <point x="754" y="365"/>
      <point x="815" y="397" type="curve"/>
    </contour>
    <contour>
      <point x="590" y="447" type="curve" smooth="yes"/>
      <point x="375.269887447" y="447.0"/>
      <point x="280.575656627" y="547.029901444"/>
      <point x="276.162250229" y="757.318005281" type="curve" smooth="yes"/>
      <point x="276.053936799" y="762.478877343"/>
      <point x="276.0" y="767.706158519"/>
      <point x="276" y="773" type="curve" smooth="yes"/>
      <point x="276" y="990"/>
      <point x="381" y="1098"/>
      <point x="590" y="1098" type="curve" smooth="yes"/>
      <point x="813" y="1098"/>
      <point x="903" y="989"/>
      <point x="903" y="772" type="curve" smooth="yes"/>
      <point x="903.0" y="766.977111509"/>
      <point x="902.944278738" y="762.012623187"/>
      <point x="902.832823812" y="757.106522633" type="curve" smooth="yes"/>
      <point x="898.12917703" y="550.058122848"/>
      <point x="794.162287122" y="447.0"/>
    </contour>
  </outline>
</glyph>
<glyph name="yen" format="1">
  <advance width="1319"/>
  <unicode hex="00A5"/>
  <outline>
    <contour>
      <point x="553" y="0" type="line"/>
      <point x="755" y="0" type="line"/>
      <point x="755" y="261" type="line"/>
      <point x="1032" y="261" type="line"/>
      <point x="1032" y="347" type="line"/>
      <point x="755" y="347" type="line"/>
      <point x="755" y="518" type="line"/>
      <point x="1079" y="518" type="line"/>
      <point x="1079" y="631" type="line"/>
      <point x="807" y="631" type="line"/>
      <point x="1206" y="1490" type="line"/>
      <point x="992" y="1490" type="line"/>
      <point x="661" y="727" type="line"/>
      <point x="336" y="1490" type="line"/>
      <point x="115" y="1490" type="line"/>
      <point x="502" y="631" type="line"/>
      <point x="241" y="631" type="line"/>
      <point x="241" y="518" type="line"/>
      <point x="553" y="518" type="line"/>
      <point x="553" y="347" type="line"/>
      <point x="288" y="347" type="line"/>
      <point x="288" y="261" type="line"/>
      <point x="553" y="261" type="line"/>
    </contour>
  </outline>
</glyph>
<glyph name="section" format="1">
  <advance width="1103"/>
  <unicode hex="00A7"/>
  <outline>
    <contour>
      <point x="278" y="1540"/>
      <point x="174" y="1475"/>
      <point x="174" y="1209" type="curve" smooth="yes"/>
      <point x="174" y="1073"/>
      <point x="205" y="977"/>
      <point x="268" y="920" type="curve"/>
      <point x="204" y="870"/>
      <point x="172" y="793"/>
      <point x="172" y="689" type="curve" smooth="yes"/>
      <point x="172" y="409"/>
      <point x="270" y="371"/>
      <point x="628" y="330" type="curve" smooth="yes"/>
      <point x="737" y="317"/>
      <point x="770" y="258"/>
      <point x="770" y="125" type="curve" smooth="yes"/>
      <point x="770" y="-55"/>
      <point x="742" y="-83"/>
      <point x="574" y="-83" type="curve" smooth="yes"/>
      <point x="378" y="-83"/>
      <point x="329" y="-77"/>
      <point x="329" y="137" type="curve"/>
      <point x="157" y="137" type="line"/>
      <point x="157" y="-147"/>
      <point x="268" y="-213"/>
      <point x="550" y="-213" type="curve" smooth="yes"/>
      <point x="829" y="-213"/>
      <point x="943" y="-153"/>
      <point x="943" y="122" type="curve" smooth="yes"/>
      <point x="943" y="261"/>
      <point x="910" y="359"/>
      <point x="844" y="416" type="curve"/>
      <point x="913" y="466"/>
      <point x="946" y="547"/>
      <point x="946" y="660" type="curve" smooth="yes"/>
      <point x="946" y="888"/>
      <point x="852" y="933"/>
      <point x="641" y="970" type="curve" smooth="yes"/>
      <point x="367" y="1017"/>
      <point x="345" y="1023"/>
      <point x="345" y="1130" type="curve" smooth="yes"/>
      <point x="345" y="1151"/>
      <point x="346" y="1175"/>
      <point x="346" y="1204" type="curve" smooth="yes"/>
      <point x="346" y="1224" type="line" smooth="yes"/>
      <point x="346" y="1405"/>
      <point x="400" y="1409"/>
      <point x="559" y="1409" type="curve" smooth="yes"/>
      <point x="746" y="1409"/>
      <point x="780" y="1380"/>
      <point x="780" y="1190" type="curve"/>
      <point x="951" y="1190" type="line"/>
      <point x="951" y="1468"/>
      <point x="848" y="1540"/>
      <point x="561" y="1540" type="curve" smooth="yes"/>
    </contour>
    <contour>
      <point x="403" y="857"/>
      <point x="514" y="847"/>
      <point x="678" y="797" type="curve" smooth="yes"/>
      <point x="745" y="776"/>
      <point x="769" y="741"/>
      <point x="769" y="612" type="curve" smooth="yes"/>
      <point x="769" y="538"/>
      <point x="758" y="486"/>
      <point x="737" y="470" type="curve"/>
      <point x="385" y="527"/>
      <point x="348" y="496"/>
      <point x="348" y="702" type="curve" smooth="yes"/>
      <point x="348" y="751"/>
      <point x="357" y="805"/>
      <point x="373" y="866" type="curve"/>
    </contour>
  </outline>
</glyph>
<glyph name="copyright" format="1">
  <advance width="1826"/>
  <unicode hex="00A9"/>
  <outline>
    <contour>
      <point x="897" y="226" type="curve" smooth="yes"/>
      <point x="1248" y="226"/>
      <point x="1300" y="273"/>
      <point x="1300" y="553" type="curve" smooth="yes"/>
      <point x="1300" y="644" type="line"/>
      <point x="1174" y="644" type="line"/>
      <point x="1173" y="529" type="line" smooth="yes"/>
      <point x="1171" y="354"/>
      <point x="1152" y="341"/>
      <point x="924" y="341" type="curve" smooth="yes"/>
      <point x="687" y="341"/>
      <point x="655" y="370"/>
      <point x="655" y="515" type="curve" smooth="yes"/>
      <point x="654" y="1054" type="line" smooth="yes"/>
      <point x="654" y="1197"/>
      <point x="669" y="1212"/>
      <point x="924" y="1212" type="curve" smooth="yes"/>
      <point x="1158" y="1212"/>
      <point x="1171" y="1194"/>
      <point x="1173" y="1011" type="curve" smooth="yes"/>
      <point x="1174" y="909" type="line"/>
      <point x="1300" y="909" type="line"/>
      <point x="1298" y="1001" type="line" smooth="yes"/>
      <point x="1292" y="1292"/>
      <point x="1207.84765579" y="1327.0"/>
      <point x="897" y="1327" type="curve" smooth="yes"/>
      <point x="559" y="1327"/>
      <point x="513" y="1254"/>
      <point x="513" y="905" type="curve" smooth="yes"/>
      <point x="513" y="698" type="line" smooth="yes"/>
      <point x="513" y="291"/>
      <point x="576" y="226"/>
    </contour>
    <contour>
      <point x="905" y="8" type="curve" smooth="yes"/>
      <point x="539" y="8"/>
      <point x="209" y="136"/>
      <point x="209" y="607" type="curve" smooth="yes"/>
      <point x="209" y="899" type="line" smooth="yes"/>
      <point x="209" y="1408"/>
      <point x="541" y="1522"/>
      <point x="915" y="1522" type="curve" smooth="yes"/>
      <point x="1288" y="1522"/>
      <point x="1623" y="1407"/>
      <point x="1623" y="899" type="curve" smooth="yes"/>
      <point x="1623" y="607" type="line" smooth="yes"/>
      <point x="1623" y="124"/>
      <point x="1299" y="8"/>
    </contour>
    <contour>
      <point x="927" y="-96" type="curve" smooth="yes"/>
      <point x="1362" y="-96"/>
      <point x="1750" y="62"/>
      <point x="1750" y="607" type="curve" smooth="yes"/>
      <point x="1750" y="900" type="line" smooth="yes"/>
      <point x="1750" y="1470"/>
      <point x="1361" y="1628"/>
      <point x="917" y="1628" type="curve" smooth="yes"/>
      <point x="478" y="1628"/>
      <point x="82" y="1475"/>
      <point x="82" y="902" type="curve" smooth="yes"/>
      <point x="82" y="607" type="line" smooth="yes"/>
      <point x="82" y="65"/>
      <point x="475" y="-96"/>
    </contour>
  </outline>
</glyph>
<glyph name="ordfeminine" format="1">
  <advance width="984"/>
  <unicode hex="00AA"/>
  <outline>
    <contour>
      <point x="409" y="584" type="curve" smooth="yes"/>
      <point x="557" y="584"/>
      <point x="647" y="603"/>
      <point x="682" y="724" type="curve"/>
      <point x="707" y="596" type="line"/>
      <point x="835" y="596" type="line"/>
      <point x="835" y="1191" type="line" smooth="yes"/>
      <point x="835" y="1444"/>
      <point x="754" y="1510"/>
      <point x="508" y="1510" type="curve" smooth="yes"/>
      <point x="312" y="1510"/>
      <point x="191" y="1489"/>
      <point x="191" y="1294" type="curve" smooth="yes"/>
      <point x="191" y="1285"/>
      <point x="191" y="1276"/>
      <point x="192" y="1266" type="curve"/>
      <point x="315" y="1262" type="line"/>
      <point x="314" y="1276"/>
      <point x="314" y="1289"/>
      <point x="314" y="1300" type="curve" smooth="yes"/>
      <point x="314" y="1370"/>
      <point x="336" y="1398"/>
      <point x="498" y="1398" type="curve" smooth="yes"/>
      <point x="668" y="1398"/>
      <point x="674" y="1375"/>
      <point x="674" y="1288" type="curve" smooth="yes"/>
      <point x="674" y="1086" type="line"/>
      <point x="652" y="1086"/>
      <point x="627" y="1087"/>
      <point x="603" y="1087" type="curve" smooth="yes"/>
      <point x="326" y="1087"/>
      <point x="139" y="1042"/>
      <point x="139" y="884" type="curve" smooth="yes"/>
      <point x="139" y="666"/>
      <point x="193" y="584"/>
    </contour>
    <contour>
      <point x="432" y="695" type="curve" smooth="yes"/>
      <point x="287" y="695"/>
      <point x="287" y="724"/>
      <point x="287" y="879" type="curve" smooth="yes"/>
      <point x="287" y="958"/>
      <point x="347" y="984"/>
      <point x="674" y="988" type="curve"/>
      <point x="674" y="891" type="line" smooth="yes"/>
      <point x="670" y="780"/>
      <point x="648" y="695"/>
    </contour>
  </outline>
</glyph>
<glyph name="guillemotleft" format="1">
  <advance width="1710"/>
  <unicode hex="00AB"/>
  <outline>
    <contour>
      <point x="717" y="252" type="curve" smooth="yes"/>
      <point x="755" y="252"/>
      <point x="783" y="284"/>
      <point x="783" y="320" type="curve" smooth="yes"/>
      <point x="783" y="338"/>
      <point x="775" y="358"/>
      <point x="758" y="375" type="curve"/>
      <point x="344" y="781" type="line"/>
      <point x="758" y="1187" type="line"/>
      <point x="775" y="1209"/>
      <point x="783" y="1229"/>
      <point x="783" y="1242" type="curve" smooth="yes"/>
      <point x="783" y="1283"/>
      <point x="755" y="1315"/>
      <point x="717" y="1310" type="curve" smooth="yes"/>
      <point x="701" y="1315"/>
      <point x="685" y="1306"/>
      <point x="665" y="1290" type="curve" smooth="yes"/>
      <point x="163" y="899" type="line" smooth="yes"/>
      <point x="116" y="863"/>
      <point x="92" y="826"/>
      <point x="92" y="781" type="curve"/>
      <point x="92" y="741"/>
      <point x="114" y="701"/>
      <point x="163" y="663" type="curve" smooth="yes"/>
      <point x="665" y="272" type="line" smooth="yes"/>
      <point x="683" y="258"/>
      <point x="701" y="252"/>
    </contour>
    <contour>
      <point x="1277" y="252" type="curve" smooth="yes"/>
      <point x="1315" y="252"/>
      <point x="1343" y="284"/>
      <point x="1343" y="320" type="curve" smooth="yes"/>
      <point x="1343" y="338"/>
      <point x="1335" y="358"/>
      <point x="1318" y="375" type="curve"/>
      <point x="904" y="781" type="line"/>
      <point x="1318" y="1187" type="line"/>
      <point x="1335" y="1209"/>
      <point x="1343" y="1229"/>
      <point x="1343" y="1242" type="curve" smooth="yes"/>
      <point x="1343" y="1283"/>
      <point x="1315" y="1315"/>
      <point x="1277" y="1310" type="curve" smooth="yes"/>
      <point x="1261" y="1315"/>
      <point x="1245" y="1306"/>
      <point x="1225" y="1290" type="curve" smooth="yes"/>
      <point x="723" y="899" type="line" smooth="yes"/>
      <point x="676" y="863"/>
      <point x="652" y="826"/>
      <point x="652" y="781" type="curve"/>
      <point x="652" y="741"/>
      <point x="674" y="701"/>
      <point x="723" y="663" type="curve" smooth="yes"/>
      <point x="1225" y="272" type="line" smooth="yes"/>
      <point x="1243" y="258"/>
      <point x="1261" y="252"/>
    </contour>
  </outline>
</glyph>
<glyph name="registered" format="1">
  <advance width="1826"/>
  <unicode hex="00AE"/>
  <outline>
    <contour>
      <point x="587.0" y="267.0" type="line"/>
      <point x="715.0" y="267.0" type="line"/>
      <point x="714.0" y="734.0" type="line"/>
      <point x="948.0" y="734.0" type="line" smooth="yes"/>
      <point x="1103.0" y="734.0"/>
      <point x="1139.0" y="694.0"/>
      <point x="1137.0" y="518.0" type="curve" smooth="yes"/>
      <point x="1137.0" y="268.0" type="line"/>
      <point x="1265.0" y="268.0" type="line"/>
      <point x="1265.0" y="609.0" type="line" smooth="yes"/>
      <point x="1265.0" y="717.0"/>
      <point x="1218" y="774"/>
      <point x="1105" y="784" type="curve"/>
      <point x="1105.0" y="788.0" type="line"/>
      <point x="1217.0" y="807.0"/>
      <point x="1273.0" y="875.0"/>
      <point x="1273.0" y="1021.0" type="curve" smooth="yes"/>
      <point x="1273.0" y="1036.0" type="line" smooth="yes"/>
      <point x="1273.0" y="1250.0"/>
      <point x="1179.0" y="1288.0"/>
      <point x="911.0" y="1288.0" type="curve" smooth="yes"/>
      <point x="587.0" y="1288.0" type="line"/>
    </contour>
    <contour>
      <point x="905" y="8" type="curve" smooth="yes"/>
      <point x="539" y="8"/>
      <point x="209" y="136"/>
      <point x="209" y="607" type="curve" smooth="yes"/>
      <point x="209" y="899" type="line" smooth="yes"/>
      <point x="209" y="1408"/>
      <point x="541" y="1522"/>
      <point x="915" y="1522" type="curve" smooth="yes"/>
      <point x="1288" y="1522"/>
      <point x="1623" y="1407"/>
      <point x="1623" y="899" type="curve" smooth="yes"/>
      <point x="1623" y="607" type="line" smooth="yes"/>
      <point x="1623" y="124"/>
      <point x="1299" y="8"/>
    </contour>
    <contour>
      <point x="927" y="-96" type="curve" smooth="yes"/>
      <point x="1362" y="-96"/>
      <point x="1750" y="62"/>
      <point x="1750" y="607" type="curve" smooth="yes"/>
      <point x="1750" y="900" type="line" smooth="yes"/>
      <point x="1750" y="1470"/>
      <point x="1361" y="1628"/>
      <point x="917" y="1628" type="curve" smooth="yes"/>
      <point x="478" y="1628"/>
      <point x="82" y="1475"/>
      <point x="82" y="902" type="curve" smooth="yes"/>
      <point x="82" y="607" type="line" smooth="yes"/>
      <point x="82" y="65"/>
      <point x="475" y="-96"/>
    </contour>
    <contour>
      <point x="714" y="832" type="line"/>
      <point x="714" y="1183" type="line"/>
      <point x="945" y="1183" type="line" smooth="yes"/>
      <point x="1075.55262381" y="1183.0"/>
      <point x="1136" y="1176"/>
      <point x="1136" y="1016" type="curve" smooth="yes"/>
      <point x="1136" y="1007" type="line" smooth="yes"/>
      <point x="1136" y="854"/>
      <point x="1102" y="832"/>
      <point x="911" y="832" type="curve" smooth="yes"/>
    </contour>
  </outline>
</glyph>
<glyph name="macron" format="1">
  <advance width="846"/>
  <unicode hex="00AF"/>
  <outline>
    <contour>
      <point x="129" y="1448" type="line"/>
      <point x="129" y="1321" type="line"/>
      <point x="726" y="1321" type="line"/>
      <point x="726" y="1448" type="line"/>
    </contour>
    <contour>
      <point x="420" y="1383" type="move" name="_mid"/>
    </contour>
    <contour>
      <point x="423" y="1097" type="move" name="_top"/>
    </contour>
  </outline>
</glyph>
<glyph name="twosuperior" format="1">
  <advance width="1204"/>
  <unicode hex="00B2"/>
  <outline>
    <contour>
      <point x="247" y="435" type="line"/>
      <point x="1032" y="435" type="line"/>
      <point x="1032" y="577" type="line"/>
      <point x="424" y="577" type="line"/>
      <point x="424" y="699"/>
      <point x="430" y="778"/>
      <point x="650" y="849" type="curve" smooth="yes"/>
      <point x="822" y="904"/>
      <point x="1052" y="935"/>
      <point x="1052" y="1177" type="curve" smooth="yes"/>
      <point x="1052" y="1443"/>
      <point x="908" y="1510"/>
      <point x="646" y="1510" type="curve" smooth="yes"/>
      <point x="403" y="1510"/>
      <point x="240" y="1449"/>
      <point x="240" y="1179" type="curve" smooth="yes"/>
      <point x="240" y="1137" type="line"/>
      <point x="434" y="1157" type="line"/>
      <point x="434" y="1215" type="line" smooth="yes"/>
      <point x="434" y="1293"/>
      <point x="450" y="1355"/>
      <point x="653" y="1354" type="curve" smooth="yes"/>
      <point x="842" y="1353"/>
      <point x="868" y="1312"/>
      <point x="868" y="1234" type="curve" smooth="yes"/>
      <point x="868" y="1162" type="line" smooth="yes"/>
      <point x="868" y="1068"/>
      <point x="804" y="1047"/>
      <point x="623" y="995" type="curve" smooth="yes"/>
      <point x="339" y="913"/>
      <point x="247" y="825"/>
      <point x="247" y="563" type="curve" smooth="yes"/>
    </contour>
  </outline>
</glyph>
<glyph name="threesuperior" format="1">
  <advance width="1261"/>
  <unicode hex="00B3"/>
  <outline>
    <contour>
      <point x="649" y="431" type="curve" smooth="yes"/>
      <point x="917" y="431"/>
      <point x="1041" y="498"/>
      <point x="1041" y="744" type="curve" smooth="yes"/>
      <point x="1041" y="852"/>
      <point x="1035" y="948"/>
      <point x="941" y="974" type="curve"/>
      <point x="1034" y="1000"/>
      <point x="1039" y="1078"/>
      <point x="1039" y="1186" type="curve" smooth="yes"/>
      <point x="1039" y="1433"/>
      <point x="968" y="1510"/>
      <point x="648" y="1510" type="curve" smooth="yes"/>
      <point x="308" y="1510"/>
      <point x="234" y="1427"/>
      <point x="234" y="1164" type="curve"/>
      <point x="234" y="1139" type="line"/>
      <point x="430" y="1139" type="line"/>
      <point x="431" y="1184" type="line" smooth="yes"/>
      <point x="435" y="1352"/>
      <point x="464" y="1373"/>
      <point x="648" y="1373" type="curve" smooth="yes"/>
      <point x="834" y="1373"/>
      <point x="855" y="1340"/>
      <point x="855" y="1206" type="curve"/>
      <point x="855" y="1077"/>
      <point x="866" y="1038"/>
      <point x="805" y="1038" type="curve" smooth="yes"/>
      <point x="540" y="1038" type="line"/>
      <point x="540" y="920" type="line"/>
      <point x="805" y="920" type="line" smooth="yes"/>
      <point x="859" y="920"/>
      <point x="855" y="872"/>
      <point x="855" y="765" type="curve"/>
      <point x="855" y="626"/>
      <point x="830" y="577"/>
      <point x="664" y="577" type="curve"/>
      <point x="437" y="577"/>
      <point x="425" y="627"/>
      <point x="429" y="777" type="curve" smooth="yes"/>
      <point x="430" y="815" type="line"/>
      <point x="234" y="815" type="line"/>
      <point x="234" y="776" type="line" smooth="yes"/>
      <point x="234" y="526"/>
      <point x="316" y="431"/>
    </contour>
  </outline>
</glyph>
<glyph name="acute" format="1">
  <advance width="670"/>
  <unicode hex="00B4"/>
  <outline>
    <contour>
      <point x="111" y="1287" type="curve" smooth="yes"/>
      <point x="112" y="1287"/>
      <point x="482" y="1425"/>
      <point x="507" y="1436" type="curve" smooth="yes"/>
      <point x="556" y="1457"/>
      <point x="578" y="1501"/>
      <point x="578" y="1540" type="curve" smooth="yes"/>
      <point x="578" y="1591"/>
      <point x="541" y="1640"/>
      <point x="475" y="1640" type="curve" smooth="yes"/>
      <point x="443" y="1640"/>
      <point x="415" y="1624"/>
      <point x="391" y="1605" type="curve" smooth="yes"/>
      <point x="353" y="1573"/>
      <point x="95" y="1308"/>
      <point x="95" y="1308" type="curve" smooth="yes"/>
      <point x="91" y="1303"/>
      <point x="92" y="1295"/>
      <point x="96" y="1290" type="curve" smooth="yes"/>
      <point x="99" y="1287"/>
      <point x="105" y="1285"/>
    </contour>
    <contour>
      <point x="325" y="1097" type="move" name="_top"/>
    </contour>
  </outline>
</glyph>
<glyph name="onesuperior" format="1">
  <advance width="802"/>
  <unicode hex="00B9"/>
  <outline>
    <contour>
      <point x="358" y="388" type="line"/>
      <point x="543" y="388" type="line"/>
      <point x="543" y="1490" type="line"/>
      <point x="431" y="1490" type="line"/>
      <point x="374" y="1455"/>
      <point x="304" y="1435"/>
      <point x="214" y="1435" type="curve"/>
      <point x="214" y="1311" type="line"/>
      <point x="358" y="1311" type="line"/>
    </contour>
  </outline>
</glyph>
<glyph name="ordmasculine" format="1">
  <advance width="975"/>
  <unicode hex="00BA"/>
  <outline>
    <contour>
      <point x="487" y="662" type="curve" smooth="yes"/>
      <point x="799" y="662"/>
      <point x="832" y="748"/>
      <point x="832" y="1060" type="curve" smooth="yes"/>
      <point x="832" y="1090" type="line" smooth="yes"/>
      <point x="833" y="1444"/>
      <point x="797" y="1510"/>
      <point x="488" y="1510" type="curve" smooth="yes"/>
      <point x="181" y="1510"/>
      <point x="143" y="1444"/>
      <point x="144" y="1090" type="curve" smooth="yes"/>
      <point x="144" y="1060" type="line" smooth="yes"/>
      <point x="144" y="748"/>
      <point x="177" y="662"/>
    </contour>
    <contour>
      <point x="300" y="834" type="curve" smooth="yes"/>
      <point x="300" y="1334" type="line" smooth="yes"/>
      <point x="300" y="1397"/>
      <point x="389" y="1407"/>
      <point x="488" y="1407" type="curve" smooth="yes"/>
      <point x="587" y="1407"/>
      <point x="676" y="1397"/>
      <point x="676" y="1334" type="curve" smooth="yes"/>
      <point x="676" y="834" type="line" smooth="yes"/>
      <point x="676" y="779"/>
      <point x="620" y="766"/>
      <point x="488" y="766" type="curve" smooth="yes"/>
      <point x="356" y="766"/>
      <point x="300" y="779"/>
    </contour>
  </outline>
</glyph>
<glyph name="guillemotright" format="1">
  <advance width="1710"/>
  <unicode hex="00BB"/>
  <outline>
    <contour>
      <point x="267" y="252" type="curve" smooth="yes"/>
      <point x="283" y="252"/>
      <point x="301" y="258"/>
      <point x="319" y="272" type="curve" smooth="yes"/>
      <point x="821" y="663" type="line" smooth="yes"/>
      <point x="870" y="701"/>
      <point x="892" y="741"/>
      <point x="892" y="781" type="curve"/>
      <point x="892" y="826"/>
      <point x="868" y="863"/>
      <point x="821" y="899" type="curve" smooth="yes"/>
      <point x="319" y="1290" type="line" smooth="yes"/>
      <point x="299" y="1306"/>
      <point x="283" y="1315"/>
      <point x="267" y="1310" type="curve" smooth="yes"/>
      <point x="229" y="1315"/>
      <point x="201" y="1283"/>
      <point x="201" y="1242" type="curve" smooth="yes"/>
      <point x="201" y="1229"/>
      <point x="206" y="1206"/>
      <point x="226" y="1187" type="curve" smooth="yes"/>
      <point x="640" y="781" type="line"/>
      <point x="226" y="375" type="line" smooth="yes"/>
      <point x="209" y="358"/>
      <point x="201" y="338"/>
      <point x="201" y="320" type="curve" smooth="yes"/>
      <point x="201" y="284"/>
      <point x="229" y="252"/>
    </contour>
    <contour>
      <point x="827" y="252" type="curve" smooth="yes"/>
      <point x="843" y="252"/>
      <point x="861" y="258"/>
      <point x="879" y="272" type="curve" smooth="yes"/>
      <point x="1381" y="663" type="line" smooth="yes"/>
      <point x="1430" y="701"/>
      <point x="1452" y="741"/>
      <point x="1452" y="781" type="curve"/>
      <point x="1452" y="826"/>
      <point x="1428" y="863"/>
      <point x="1381" y="899" type="curve" smooth="yes"/>
      <point x="879" y="1290" type="line" smooth="yes"/>
      <point x="859" y="1306"/>
      <point x="843" y="1315"/>
      <point x="827" y="1310" type="curve" smooth="yes"/>
      <point x="789" y="1315"/>
      <point x="761" y="1283"/>
      <point x="761" y="1242" type="curve" smooth="yes"/>
      <point x="761" y="1229"/>
      <point x="766" y="1206"/>
      <point x="786" y="1187" type="curve" smooth="yes"/>
      <point x="1200" y="781" type="line"/>
      <point x="786" y="375" type="line" smooth="yes"/>
      <point x="769" y="358"/>
      <point x="761" y="338"/>
      <point x="761" y="320" type="curve" smooth="yes"/>
      <point x="761" y="284"/>
      <point x="789" y="252"/>
    </contour>
  </outline>
</glyph>
<glyph name="onequarter" format="1">
  <advance width="2346"/>
  <unicode hex="00BC"/>
  <outline>
    <contour>
      <point x="1981" y="0" type="line"/>
      <point x="2169" y="0" type="line"/>
      <point x="2169" y="690" type="line"/>
      <point x="1981" y="690" type="line"/>
      <point x="1981" y="401" type="line"/>
      <point x="1600" y="401" type="line"/>
      <point x="1600" y="415" type="line"/>
      <point x="1940" y="1102" type="line"/>
      <point x="1765" y="1102" type="line"/>
      <point x="1395" y="402" type="line"/>
      <point x="1395" y="251" type="line"/>
      <point x="1981" y="251" type="line"/>
    </contour>
    <contour>
      <point x="274" y="450" type="line"/>
      <point x="459" y="450" type="line"/>
      <point x="459" y="1490" type="line"/>
      <point x="347" y="1490" type="line"/>
      <point x="290" y="1455"/>
      <point x="220" y="1435"/>
      <point x="130" y="1435" type="curve"/>
      <point x="130" y="1311" type="line"/>
      <point x="274" y="1311" type="line"/>
    </contour>
    <contour>
      <point x="632" y="0" type="line"/>
      <point x="768" y="0" type="line"/>
      <point x="1459" y="1526" type="line"/>
      <point x="1224" y="1526" type="line"/>
    </contour>
  </outline>
</glyph>
<glyph name="onehalf" format="1">
  <advance width="2393"/>
  <unicode hex="00BD"/>
  <outline>
    <contour>
      <point x="1465" y="0" type="line"/>
      <point x="2250" y="0" type="line"/>
      <point x="2250" y="142" type="line"/>
      <point x="1642" y="142" type="line"/>
      <point x="1642" y="264"/>
      <point x="1648" y="343"/>
      <point x="1868" y="414" type="curve" smooth="yes"/>
      <point x="2040" y="469"/>
      <point x="2270" y="500"/>
      <point x="2270" y="742" type="curve" smooth="yes"/>
      <point x="2270" y="1008"/>
      <point x="2126" y="1075"/>
      <point x="1864" y="1075" type="curve" smooth="yes"/>
      <point x="1621" y="1075"/>
      <point x="1458" y="1014"/>
      <point x="1458" y="744" type="curve" smooth="yes"/>
      <point x="1458" y="702" type="line"/>
      <point x="1652" y="722" type="line"/>
      <point x="1652" y="780" type="line" smooth="yes"/>
      <point x="1652" y="858"/>
      <point x="1668" y="920"/>
      <point x="1871" y="919" type="curve" smooth="yes"/>
      <point x="2060" y="918"/>
      <point x="2086" y="877"/>
      <point x="2086" y="799" type="curve" smooth="yes"/>
      <point x="2086" y="727" type="line" smooth="yes"/>
      <point x="2086" y="633"/>
      <point x="2022" y="612"/>
      <point x="1841" y="560" type="curve" smooth="yes"/>
      <point x="1557" y="478"/>
      <point x="1465" y="390"/>
      <point x="1465" y="128" type="curve" smooth="yes"/>
    </contour>
    <contour>
      <point x="274" y="450" type="line"/>
      <point x="459" y="450" type="line"/>
      <point x="459" y="1490" type="line"/>
      <point x="347" y="1490" type="line"/>
      <point x="290" y="1455"/>
      <point x="220" y="1435"/>
      <point x="130" y="1435" type="curve"/>
      <point x="130" y="1311" type="line"/>
      <point x="274" y="1311" type="line"/>
    </contour>
    <contour>
      <point x="562" y="0" type="line"/>
      <point x="698" y="0" type="line"/>
      <point x="1389" y="1526" type="line"/>
      <point x="1154" y="1526" type="line"/>
    </contour>
  </outline>
</glyph>
<glyph name="threequarters" format="1">
  <advance width="2627"/>
  <unicode hex="00BE"/>
  <outline>
    <contour>
      <point x="2262" y="0" type="line"/>
      <point x="2450" y="0" type="line"/>
      <point x="2450" y="690" type="line"/>
      <point x="2262" y="690" type="line"/>
      <point x="2262" y="401" type="line"/>
      <point x="1881" y="401" type="line"/>
      <point x="1881" y="415" type="line"/>
      <point x="2221" y="1102" type="line"/>
      <point x="2046" y="1102" type="line"/>
      <point x="1676" y="402" type="line"/>
      <point x="1676" y="251" type="line"/>
      <point x="2262" y="251" type="line"/>
    </contour>
    <contour>
      <point x="1003" y="0" type="line"/>
      <point x="1139" y="0" type="line"/>
      <point x="1830" y="1526" type="line"/>
      <point x="1595" y="1526" type="line"/>
    </contour>
    <contour>
      <point x="587" y="420" type="curve" smooth="yes"/>
      <point x="855" y="420"/>
      <point x="979" y="487"/>
      <point x="979" y="733" type="curve" smooth="yes"/>
      <point x="979" y="841"/>
      <point x="973" y="937"/>
      <point x="879" y="963" type="curve"/>
      <point x="972" y="989"/>
      <point x="977" y="1067"/>
      <point x="977" y="1175" type="curve" smooth="yes"/>
      <point x="977" y="1422"/>
      <point x="906" y="1499"/>
      <point x="586" y="1499" type="curve" smooth="yes"/>
      <point x="246" y="1499"/>
      <point x="172" y="1416"/>
      <point x="172" y="1153" type="curve"/>
      <point x="172" y="1128" type="line"/>
      <point x="368" y="1128" type="line"/>
      <point x="369" y="1173" type="line" smooth="yes"/>
      <point x="373" y="1341"/>
      <point x="402" y="1362"/>
      <point x="586" y="1362" type="curve" smooth="yes"/>
      <point x="772" y="1362"/>
      <point x="793" y="1329"/>
      <point x="793" y="1195" type="curve"/>
      <point x="793" y="1066"/>
      <point x="804" y="1027"/>
      <point x="743" y="1027" type="curve" smooth="yes"/>
      <point x="478" y="1027" type="line"/>
      <point x="478" y="909" type="line"/>
      <point x="743" y="909" type="line" smooth="yes"/>
      <point x="797" y="909"/>
      <point x="793" y="861"/>
      <point x="793" y="754" type="curve"/>
      <point x="793" y="615"/>
      <point x="768" y="566"/>
      <point x="602" y="566" type="curve"/>
      <point x="375" y="566"/>
      <point x="363" y="616"/>
      <point x="367" y="766" type="curve" smooth="yes"/>
      <point x="368" y="804" type="line"/>
      <point x="172" y="804" type="line"/>
      <point x="172" y="765" type="line" smooth="yes"/>
      <point x="172" y="515"/>
      <point x="254" y="420"/>
    </contour>
  </outline>
</glyph>
<glyph name="multiply" format="1">
  <advance width="969"/>
  <unicode hex="00D7"/>
  <outline>
    <contour>
      <point x="258" y="288" type="curve"/>
      <point x="484" y="538" type="line"/>
      <point x="711" y="288" type="line"/>
      <point x="829" y="420" type="line"/>
      <point x="606" y="670" type="line"/>
      <point x="829" y="920" type="line"/>
      <point x="711" y="1052" type="line"/>
      <point x="484" y="802" type="line"/>
      <point x="258" y="1052" type="line"/>
      <point x="192" y="979"/>
      <point x="166" y="949"/>
      <point x="139" y="920" type="curve"/>
      <point x="348" y="687"/>
      <point x="355" y="678"/>
      <point x="363" y="670" type="curve"/>
      <point x="139" y="420" type="line"/>
      <point x="205" y="347"/>
      <point x="231" y="317"/>
    </contour>
  </outline>
</glyph>
<glyph name="Oslash" format="1">
  <advance width="1735"/>
  <unicode hex="00D8"/>
  <outline>
    <contour>
      <point x="1149" y="1327" type="line"/>
      <point x="1338" y="1621" type="line"/>
      <point x="1215" y="1693" type="line"/>
      <point x="1021" y="1391" type="line"/>
    </contour>
    <contour>
      <point x="261" y="-173" type="line"/>
      <point x="427" y="91" type="line"/>
      <point x="311" y="170" type="line"/>
      <point x="142" y="-99" type="line"/>
    </contour>
    <component base="O"/>
    <contour>
      <point x="852" y="1595" type="move" name="top"/>
    </contour>
  </outline>
</glyph>
<glyph name="germandbls" format="1">
  <advance width="1264"/>
  <unicode hex="00DF"/>
  <outline>
    <contour>
      <point x="165" y="-185" type="line"/>
      <point x="363" y="-169" type="line"/>
      <point x="363" y="1082" type="line"/>
      <point x="362" y="1325"/>
      <point x="407" y="1337"/>
      <point x="616" y="1337" type="curve" smooth="yes"/>
      <point x="811" y="1337"/>
      <point x="849" y="1303"/>
      <point x="849" y="1140" type="curve" smooth="yes"/>
      <point x="849" y="995"/>
      <point x="842" y="885"/>
      <point x="752" y="885" type="curve" smooth="yes"/>
      <point x="511" y="885" type="line"/>
      <point x="511" y="737" type="line"/>
      <point x="752" y="736" type="line" smooth="yes"/>
      <point x="921" y="736"/>
      <point x="929" y="661"/>
      <point x="923" y="429" type="curve" smooth="yes"/>
      <point x="917" y="179"/>
      <point x="882" y="160"/>
      <point x="713" y="160" type="curve" smooth="yes"/>
      <point x="481" y="162" type="line"/>
      <point x="481" y="0" type="line"/>
      <point x="727" y="0" type="line" smooth="yes"/>
      <point x="960" y="0"/>
      <point x="1122" y="95"/>
      <point x="1122" y="378" type="curve" smooth="yes"/>
      <point x="1122" y="471" type="line" smooth="yes"/>
      <point x="1122" y="740"/>
      <point x="1013" y="818"/>
      <point x="890" y="827" type="curve"/>
      <point x="990" y="841"/>
      <point x="1042" y="947"/>
      <point x="1042" y="1141" type="curve" smooth="yes"/>
      <point x="1042" y="1410"/>
      <point x="915" y="1497"/>
      <point x="616" y="1497" type="curve" smooth="yes"/>
      <point x="298" y="1497"/>
      <point x="165" y="1418"/>
      <point x="165" y="1132" type="curve" smooth="yes"/>
    </contour>
  </outline>
</glyph>
<glyph name="ae" format="1">
  <advance width="1782"/>
  <unicode hex="00E6"/>
  <outline>
    <contour>
      <point x="471" y="-15" type="curve" smooth="yes"/>
      <point x="669" y="-15"/>
      <point x="823" y="31"/>
      <point x="884" y="162" type="curve"/>
      <point x="944" y="56"/>
      <point x="1043" y="-15"/>
      <point x="1275" y="-15" type="curve" smooth="yes"/>
      <point x="1473.12396681" y="-15.0"/>
      <point x="1558.59625356" y="13.0199610317"/>
      <point x="1592.3882765" y="144.30120529" type="curve" smooth="yes"/>
      <point x="1603.28297245" y="186.62685246"/>
      <point x="1608.80578512" y="239.685950279"/>
      <point x="1611" y="306" type="curve"/>
      <point x="1458" y="334" type="line"/>
      <point x="1451.0" y="270.0"/>
      <point x="1456.75" y="217.0"/>
      <point x="1436.375" y="180.0" type="curve" smooth="yes"/>
      <point x="1416.0" y="143.0"/>
      <point x="1369.5" y="122.0"/>
      <point x="1258" y="122" type="curve" smooth="yes"/>
      <point x="1127.0" y="122.0"/>
      <point x="1059.75" y="140.75"/>
      <point x="1025.25" y="184.75" type="curve" smooth="yes"/>
      <point x="990.75" y="228.75"/>
      <point x="989.0" y="298.0"/>
      <point x="989" y="550" type="curve"/>
      <point x="1638" y="549" type="line"/>
      <point x="1638" y="622"/>
      <point x="1637.17009333" y="700.627440193"/>
      <point x="1634.40436053" y="756.497030603" type="curve" smooth="yes"/>
      <point x="1619.46757501" y="1058.22975303"/>
      <point x="1548.06827739" y="1128.0"/>
      <point x="1246" y="1128" type="curve" smooth="yes"/>
      <point x="1068" y="1128"/>
      <point x="942" y="1091"/>
      <point x="906" y="994" type="curve"/>
      <point x="885" y="1097"/>
      <point x="737" y="1128"/>
      <point x="594" y="1128" type="curve" smooth="yes"/>
      <point x="359" y="1128"/>
      <point x="200" y="1104"/>
      <point x="200" y="877" type="curve" smooth="yes"/>
      <point x="200" y="862"/>
      <point x="200" y="846"/>
      <point x="202" y="830" type="curve"/>
      <point x="355" y="824" type="line"/>
      <point x="357.5" y="894.0"/>
      <point x="354.0" y="935.75"/>
      <point x="379.875" y="960.0" type="curve" smooth="yes"/>
      <point x="405.75" y="984.25"/>
      <point x="461.0" y="991.0"/>
      <point x="581" y="991" type="curve" smooth="yes"/>
      <point x="738" y="991"/>
      <point x="792" y="970"/>
      <point x="792" y="901" type="curve" smooth="yes"/>
      <point x="792" y="604" type="line"/>
      <point x="404" y="604"/>
      <point x="138" y="577"/>
      <point x="138" y="354" type="curve" smooth="yes"/>
      <point x="138" y="86"/>
      <point x="205" y="-15"/>
    </contour>
    <contour>
      <point x="498" y="122" type="curve" smooth="yes"/>
      <point x="410.0" y="122.0"/>
      <point x="365.5" y="130.25"/>
      <point x="343.0" y="161.75" type="curve" smooth="yes"/>
      <point x="320.5" y="193.25"/>
      <point x="320.0" y="248.0"/>
      <point x="320" y="354" type="curve" smooth="yes"/>
      <point x="320.0" y="423.067762457"/>
      <point x="366.372604145" y="463.830169137"/>
      <point x="571.752765572" y="478.624044794" type="curve" smooth="yes"/>
      <point x="631.023343024" y="482.893403368"/>
      <point x="703.536698546" y="485.0"/>
      <point x="792" y="485" type="curve"/>
      <point x="792" y="314" type="line" smooth="yes"/>
      <point x="792" y="203"/>
      <point x="718" y="122"/>
    </contour>
    <contour>
      <point x="989" y="655" type="line"/>
      <point x="992.0" y="782.0"/>
      <point x="987.75" y="866.0"/>
      <point x="1016.875" y="918.25" type="curve" smooth="yes"/>
      <point x="1046.0" y="970.5"/>
      <point x="1108.5" y="991.0"/>
      <point x="1245" y="991" type="curve" smooth="yes"/>
      <point x="1384" y="991"/>
      <point x="1425" y="971"/>
      <point x="1431" y="889" type="curve" smooth="yes"/>
      <point x="1437" y="813"/>
      <point x="1440" y="735"/>
      <point x="1441" y="655" type="curve"/>
    </contour>
    <contour>
      <point x="857" y="1097" type="move" name="top"/>
    </contour>
  </outline>
</glyph>
<glyph name="oslash" format="1">
  <advance width="1631"/>
  <unicode hex="00F8"/>
  <outline>
    <contour>
      <point x="102" y="8" type="line"/>
      <point x="102" y="8"/>
      <point x="1134" y="1047"/>
      <point x="1134" y="1047" type="curve"/>
      <point x="1076" y="1105" type="line"/>
      <point x="1076" y="1105"/>
      <point x="44" y="66"/>
      <point x="44" y="66" type="curve"/>
    </contour>
    <component base="o"/>
    <contour>
      <point x="594" y="1117" type="move" name="top"/>
    </contour>
  </outline>
</glyph>
<glyph name="thorn" format="1">
  <advance width="1213"/>
  <unicode hex="00FE"/>
  <outline>
    <contour>
      <point x="162" y="-401" type="line"/>
      <point x="358" y="-385" type="line"/>
      <point x="358" y="104" type="line"/>
      <point x="400" y="20"/>
      <point x="526" y="-24"/>
      <point x="724" y="-24" type="curve" smooth="yes"/>
      <point x="1020" y="-24"/>
      <point x="1069" y="124"/>
      <point x="1069" y="526" type="curve" smooth="yes"/>
      <point x="1069" y="550" type="line" smooth="yes"/>
      <point x="1069" y="921"/>
      <point x="1065" y="1168"/>
      <point x="705" y="1168" type="curve" smooth="yes"/>
      <point x="504" y="1168"/>
      <point x="390" y="1124"/>
      <point x="357" y="1041" type="curve"/>
      <point x="357" y="1579" type="line"/>
      <point x="162" y="1564" type="line"/>
    </contour>
    <contour>
      <point x="620" y="144" type="curve" smooth="yes"/>
      <point x="398" y="144"/>
      <point x="355" y="145"/>
      <point x="355" y="355" type="curve" smooth="yes"/>
      <point x="355.0" y="451.652173913"/>
      <point x="356.0" y="623.946428571"/>
      <point x="356" y="798" type="curve" smooth="yes"/>
      <point x="356" y="981"/>
      <point x="365" y="1001"/>
      <point x="641" y="1001" type="curve" smooth="yes"/>
      <point x="850" y="1001"/>
      <point x="871" y="995"/>
      <point x="871" y="770" type="curve" smooth="yes"/>
      <point x="871.0" y="672.294117647"/>
      <point x="871.0" y="501.818181818"/>
      <point x="871" y="392" type="curve" smooth="yes"/>
      <point x="871" y="189"/>
      <point x="849" y="144"/>
    </contour>
  </outline>
</glyph>
<glyph name="Lslash" format="1">
  <advance width="1011"/>
  <unicode hex="0141"/>
  <outline>
    <contour>
      <point x="46" y="540" type="line"/>
      <point x="46" y="540"/>
      <point x="680" y="867"/>
      <point x="680" y="867" type="curve"/>
      <point x="680" y="1060" type="line"/>
      <point x="680" y="1060"/>
      <point x="46" y="733"/>
      <point x="46" y="733" type="curve"/>
    </contour>
    <component base="L"/>
  </outline>
</glyph>
<glyph name="lslash" format="1">
  <advance width="629"/>
  <unicode hex="0142"/>
  <outline>
    <contour>
      <point x="55" y="809" type="line"/>
      <point x="548" y="1001" type="line"/>
      <point x="548" y="1149" type="line"/>
      <point x="55" y="959" type="line"/>
    </contour>
    <component base="l" xOffset="30"/>
  </outline>
</glyph>
<glyph name="Eng" format="1">
  <advance width="1421"/>
  <unicode hex="014A"/>
  <outline>
    <contour>
      <point x="814" y="-406" type="line"/>
      <point x="1155" y="-406"/>
      <point x="1260" y="-306"/>
      <point x="1260" y="0" type="curve" smooth="yes"/>
      <point x="1260" y="1490" type="line"/>
      <point x="1082" y="1490" type="line"/>
      <point x="1082" y="357" type="line"/>
      <point x="366" y="1490" type="line"/>
      <point x="161" y="1490" type="line"/>
      <point x="161" y="0" type="line"/>
      <point x="339" y="0" type="line"/>
      <point x="339" y="1177" type="line"/>
      <point x="1082" y="41" type="line"/>
      <point x="1082" y="-97" type="line" smooth="yes"/>
      <point x="1082" y="-197"/>
      <point x="1072" y="-260"/>
      <point x="824" y="-260" type="curve"/>
    </contour>
  </outline>
</glyph>
<glyph name="OE" format="1">
  <advance width="2108"/>
  <unicode hex="0152"/>
  <outline>
    <contour>
      <point x="729" y="0" type="curve" smooth="yes"/>
      <point x="1947" y="0" type="line"/>
      <point x="1967" y="153" type="line"/>
      <point x="1306" y="153" type="line"/>
      <point x="1306" y="695" type="line"/>
      <point x="1863" y="695" type="line"/>
      <point x="1863" y="857" type="line"/>
      <point x="1306" y="857" type="line"/>
      <point x="1306" y="1336" type="line"/>
      <point x="1958" y="1336" type="line"/>
      <point x="1938" y="1490" type="line"/>
      <point x="729" y="1490" type="line" smooth="yes"/>
      <point x="230" y="1490"/>
      <point x="151" y="1348"/>
      <point x="151" y="812" type="curve" smooth="yes"/>
      <point x="151" y="783.793"/>
      <point x="151.015" y="756.508"/>
      <point x="151.089" y="730.12" type="curve" smooth="yes"/>
      <point x="152.736" y="144.665"/>
      <point x="183.584" y="-1.13687e-13"/>
    </contour>
    <contour>
      <point x="729" y="154" type="line" smooth="yes"/>
      <point x="485.044" y="154"/>
      <point x="394.739" y="184.263"/>
      <point x="369" y="365.625" type="curve" smooth="yes"/>
      <point x="350.948" y="492.827"/>
      <point x="346.103" y="759.931"/>
      <point x="358" y="1097" type="curve" smooth="yes"/>
      <point x="364" y="1294"/>
      <point x="395" y="1337"/>
      <point x="729" y="1337" type="curve" smooth="yes"/>
      <point x="1103" y="1337" type="line"/>
      <point x="1103" y="154" type="line"/>
    </contour>
    <contour>
      <point x="1033" y="1490" type="move" name="top"/>
    </contour>
  </outline>
</glyph>
<glyph name="oe" format="1">
  <advance width="1853"/>
  <unicode hex="0153"/>
  <outline>
    <contour>
      <point x="1311" y="-19.9999" type="curve" smooth="yes"/>
      <point x="1580" y="-19.9999"/>
      <point x="1703" y="19.0001"/>
      <point x="1708" y="230" type="curve" smooth="yes"/>
      <point x="1710" y="321" type="line"/>
      <point x="1556" y="329" type="line"/>
      <point x="1546" y="207" type="line" smooth="yes"/>
      <point x="1541" y="148"/>
      <point x="1490" y="117"/>
      <point x="1319" y="117" type="curve" smooth="yes"/>
      <point x="1119" y="117"/>
      <point x="1058" y="137"/>
      <point x="1053" y="227" type="curve" smooth="yes"/>
      <point x="1047" y="331"/>
      <point x="1046" y="437"/>
      <point x="1045" y="550" type="curve"/>
      <point x="1734" y="550" type="line"/>
      <point x="1739" y="629" type="line"/>
      <point x="1734" y="1028"/>
      <point x="1682" y="1117"/>
      <point x="1303" y="1117" type="curve" smooth="yes"/>
      <point x="1123.78" y="1117"/>
      <point x="1014" y="1088"/>
      <point x="948" y="1002" type="curve"/>
      <point x="884" y="1090"/>
      <point x="776.071" y="1117"/>
      <point x="594" y="1117" type="curve" smooth="yes"/>
      <point x="186" y="1117"/>
      <point x="132" y="1032"/>
      <point x="132" y="585" type="curve" smooth="yes"/>
      <point x="132" y="557" type="line" smooth="yes"/>
      <point x="132" y="101"/>
      <point x="158" y="-19.9999"/>
      <point x="593" y="-19.9999" type="curve" smooth="yes"/>
      <point x="778.262" y="-19.9999"/>
      <point x="887" y="12"/>
      <point x="950" y="102" type="curve"/>
      <point x="1019" y="10"/>
      <point x="1132.41" y="-19.9999"/>
    </contour>
    <contour>
      <point x="595" y="118" type="curve" smooth="yes"/>
      <point x="418" y="118"/>
      <point x="340" y="137"/>
      <point x="340" y="210" type="curve"/>
      <point x="339" y="884" type="line"/>
      <point x="339" y="978"/>
      <point x="475" y="978"/>
      <point x="594" y="978" type="curve" smooth="yes"/>
      <point x="713" y="978"/>
      <point x="849" y="978"/>
      <point x="849" y="884" type="curve" smooth="yes"/>
      <point x="848" y="210" type="line" smooth="yes"/>
      <point x="848" y="135"/>
      <point x="772" y="118"/>
    </contour>
    <contour>
      <point x="1046" y="655" type="line"/>
      <point x="1048" y="720"/>
      <point x="1045" y="817"/>
      <point x="1063" y="885" type="curve" smooth="yes"/>
      <point x="1083" y="961"/>
      <point x="1105" y="980"/>
      <point x="1302" y="980" type="curve" smooth="yes"/>
      <point x="1472" y="980"/>
      <point x="1526" y="960"/>
      <point x="1532" y="878" type="curve" smooth="yes"/>
      <point x="1538" y="802"/>
      <point x="1541" y="724"/>
      <point x="1542" y="655" type="curve"/>
    </contour>
  </outline>
</glyph>
<glyph name="caron" format="1">
  <advance width="801"/>
  <unicode hex="02C7"/>
  <outline>
    <contour>
      <point x="407" y="1286" type="curve" smooth="yes"/>
      <point x="443" y="1286"/>
      <point x="475" y="1299"/>
      <point x="501" y="1338" type="curve" smooth="yes"/>
      <point x="693" y="1647" type="line" smooth="yes"/>
      <point x="703" y="1663"/>
      <point x="703" y="1686"/>
      <point x="687" y="1699" type="curve" smooth="yes"/>
      <point x="673" y="1711"/>
      <point x="649" y="1713"/>
      <point x="638" y="1701" type="curve" smooth="yes"/>
      <point x="407" y="1465" type="line"/>
      <point x="176" y="1701" type="line" smooth="yes"/>
      <point x="165" y="1713"/>
      <point x="141" y="1711"/>
      <point x="127" y="1699" type="curve" smooth="yes"/>
      <point x="111" y="1686"/>
      <point x="111" y="1663"/>
      <point x="121" y="1647" type="curve" smooth="yes"/>
      <point x="313" y="1338" type="line" smooth="yes"/>
      <point x="339" y="1299"/>
      <point x="371" y="1286"/>
    </contour>
    <contour>
      <point x="401" y="1097" type="move" name="_top"/>
    </contour>
  </outline>
</glyph>
<glyph name="breve" format="1">
  <advance width="743"/>
  <unicode hex="02D8"/>
  <outline>
    <contour>
      <point x="513" y="1578" type="line"/>
      <point x="513" y="1459"/>
      <point x="467" y="1404"/>
      <point x="368" y="1404" type="curve" smooth="yes"/>
      <point x="269" y="1404"/>
      <point x="223" y="1459"/>
      <point x="223" y="1578" type="curve"/>
      <point x="82" y="1578" type="line"/>
      <point x="82" y="1372"/>
      <point x="172" y="1278"/>
      <point x="368" y="1278" type="curve" smooth="yes"/>
      <point x="564" y="1278"/>
      <point x="654" y="1372"/>
      <point x="654" y="1578" type="curve"/>
    </contour>
    <contour>
      <point x="372" y="1097" type="move" name="_top"/>
    </contour>
  </outline>
</glyph>
<glyph name="dotaccent" format="1">
  <advance width="447"/>
  <unicode hex="02D9"/>
  <outline>
    <contour>
      <point x="225" y="1387" type="curve" smooth="yes"/>
      <point x="295" y="1387"/>
      <point x="362" y="1424"/>
      <point x="362" y="1524" type="curve" smooth="yes"/>
      <point x="362" y="1620"/>
      <point x="296" y="1659"/>
      <point x="225" y="1659" type="curve" smooth="yes"/>
      <point x="156" y="1659"/>
      <point x="89" y="1623"/>
      <point x="89" y="1524" type="curve" smooth="yes"/>
      <point x="89" y="1427"/>
      <point x="154" y="1387"/>
    </contour>
    <contour>
      <point x="225" y="1097" type="move" name="_top"/>
    </contour>
  </outline>
</glyph>
<glyph name="ring" format="1">
  <advance width="745"/>
  <unicode hex="02DA"/>
  <outline>
    <contour>
      <point x="215" y="1746"/>
      <point x="117" y="1645"/>
      <point x="117" y="1489" type="curve" smooth="yes"/>
      <point x="117" y="1333"/>
      <point x="214" y="1239"/>
      <point x="372" y="1239" type="curve" smooth="yes"/>
      <point x="529" y="1239"/>
      <point x="630" y="1333"/>
      <point x="630" y="1489" type="curve" smooth="yes"/>
      <point x="630" y="1645"/>
      <point x="530" y="1746"/>
      <point x="372" y="1746" type="curve" smooth="yes"/>
    </contour>
    <contour>
      <point x="451" y="1628"/>
      <point x="487" y="1587"/>
      <point x="487" y="1487" type="curve" smooth="yes"/>
      <point x="487" y="1397"/>
      <point x="449" y="1355"/>
      <point x="372" y="1355" type="curve" smooth="yes"/>
      <point x="293" y="1355"/>
      <point x="257" y="1401"/>
      <point x="257" y="1489" type="curve" smooth="yes"/>
      <point x="257" y="1583"/>
      <point x="288" y="1628"/>
      <point x="372" y="1628" type="curve" smooth="yes"/>
    </contour>
    <contour>
      <point x="373" y="1097" type="move" name="_top"/>
    </contour>
  </outline>
</glyph>
<glyph name="ogonek" format="1">
  <advance width="716"/>
  <unicode hex="02DB"/>
  <outline>
    <contour>
      <point x="374" y="0" type="line"/>
      <point x="209" y="-95"/>
      <point x="159" y="-216"/>
      <point x="159" y="-325" type="curve" smooth="yes"/>
      <point x="159" y="-452"/>
      <point x="270" y="-518"/>
      <point x="392" y="-518" type="curve" smooth="yes"/>
      <point x="453" y="-518"/>
      <point x="516" y="-502"/>
      <point x="570" y="-468" type="curve"/>
      <point x="548" y="-371" type="line"/>
      <point x="521" y="-380"/>
      <point x="493" y="-385"/>
      <point x="466" y="-385" type="curve" smooth="yes"/>
      <point x="398" y="-385"/>
      <point x="340" y="-353"/>
      <point x="340" y="-269" type="curve" smooth="yes"/>
      <point x="340" y="-175"/>
      <point x="391" y="-53"/>
      <point x="482" y="0" type="curve"/>
    </contour>
    <contour>
      <point x="423" y="0" type="move" name="_ogonek"/>
    </contour>
  </outline>
</glyph>
<glyph name="uni0307" format="1">
  <advance width="465"/>
  <unicode hex="0307"/>
  <outline>
    <contour>
      <point x="136" y="1638" type="line"/>
      <point x="135" y="1410" type="line"/>
      <point x="333" y="1410" type="line"/>
      <point x="332" y="1638" type="line"/>
    </contour>
    <contour>
      <point x="233" y="1097" type="move" name="_top"/>
    </contour>
  </outline>
</glyph>
<glyph name="dblgravecmb" format="1">
  <advance width="1127"/>
  <unicode hex="030F"/>
  <outline>
    <contour>
      <point x="557" y="1327" type="curve" smooth="yes"/>
      <point x="573" y="1331" type="line"/>
      <point x="574" y="1348" type="line"/>
      <point x="574" y="1348"/>
      <point x="316" y="1613"/>
      <point x="278" y="1645" type="curve" smooth="yes"/>
      <point x="254" y="1664"/>
      <point x="226" y="1680"/>
      <point x="194" y="1680" type="curve" smooth="yes"/>
      <point x="128" y="1680"/>
      <point x="91" y="1631"/>
      <point x="91" y="1580" type="curve" smooth="yes"/>
      <point x="91" y="1541"/>
      <point x="113" y="1497"/>
      <point x="162" y="1476" type="curve" smooth="yes"/>
      <point x="187" y="1465"/>
      <point x="556" y="1327"/>
    </contour>
    <contour>
      <point x="997" y="1327" type="curve" smooth="yes"/>
      <point x="1013" y="1331" type="line"/>
      <point x="1014" y="1348" type="line"/>
      <point x="1014" y="1348"/>
      <point x="756" y="1613"/>
      <point x="718" y="1645" type="curve" smooth="yes"/>
      <point x="694" y="1664"/>
      <point x="666" y="1680"/>
      <point x="634" y="1680" type="curve" smooth="yes"/>
      <point x="568" y="1680"/>
      <point x="531" y="1631"/>
      <point x="531" y="1580" type="curve" smooth="yes"/>
      <point x="531" y="1541"/>
      <point x="553" y="1497"/>
      <point x="602" y="1476" type="curve" smooth="yes"/>
      <point x="627" y="1465"/>
      <point x="996" y="1327"/>
    </contour>
    <contour>
      <point x="747" y="1097" type="move" name="_top"/>
    </contour>
  </outline>
</glyph>
<glyph name="commaaccent" format="1">
  <advance width="502"/>
  <unicode hex="0326"/>
  <outline>
    <contour>
      <point x="121" y="-691" type="line"/>
      <point x="301" y="-691"/>
      <point x="434" y="-528"/>
      <point x="434" y="-356" type="curve" smooth="yes"/>
      <point x="434" y="-225"/>
      <point x="374" y="-160"/>
      <point x="269" y="-160" type="curve" smooth="yes"/>
      <point x="172" y="-160"/>
      <point x="107" y="-223"/>
      <point x="107" y="-309" type="curve" smooth="yes"/>
      <point x="107" y="-398"/>
      <point x="154" y="-461"/>
      <point x="249" y="-466" type="curve"/>
      <point x="249" y="-558"/>
      <point x="198" y="-628"/>
      <point x="121" y="-631" type="curve"/>
    </contour>
    <contour>
      <point x="261" y="0" type="move" name="_bot"/>
    </contour>
  </outline>
</glyph>
<glyph name="mu" format="1">
  <advance width="1176"/>
  <unicode hex="03BC"/>
  <outline>
    <contour>
      <point x="821" y="1097" type="line"/>
      <point x="821" y="383" type="line"/>
      <point x="821" y="236"/>
      <point x="854" y="122"/>
      <point x="581" y="122" type="curve" smooth="yes"/>
      <point x="388" y="122"/>
      <point x="353" y="151"/>
      <point x="347" y="287" type="curve"/>
      <point x="347" y="1097" type="line"/>
      <point x="150" y="1097" type="line"/>
      <point x="150" y="-340" type="line"/>
      <point x="347" y="-340" type="line"/>
      <point x="347" y="1" type="line"/>
      <point x="477" y="-35"/>
      <point x="763" y="-30"/>
      <point x="820" y="140" type="curve"/>
      <point x="838" y="-0.999901" type="line"/>
      <point x="1020" y="-0.999901" type="line"/>
      <point x="1020" y="1097" type="line"/>
    </contour>
  </outline>
</glyph>
<glyph name="pi" format="1">
  <advance width="1485"/>
  <unicode hex="03C0"/>
  <outline>
    <contour>
      <point x="1130" y="-25" type="curve" smooth="yes"/>
      <point x="1198" y="-25"/>
      <point x="1275" y="-1"/>
      <point x="1350" y="48" type="curve"/>
      <point x="1350" y="152" type="line"/>
      <point x="1305" y="139"/>
      <point x="1265" y="132"/>
      <point x="1229" y="132" type="curve" smooth="yes"/>
      <point x="1107" y="132"/>
      <point x="1038" y="212"/>
      <point x="1038" y="416" type="curve" smooth="yes"/>
      <point x="1038" y="535"/>
      <point x="1064" y="699"/>
      <point x="1108" y="912" type="curve"/>
      <point x="1345" y="912" type="line"/>
      <point x="1345" y="1097" type="line"/>
      <point x="481" y="1097" type="line" smooth="yes"/>
      <point x="233" y="1097"/>
      <point x="129" y="1001"/>
      <point x="129" y="775" type="curve"/>
      <point x="256" y="775" type="line"/>
      <point x="269" y="854"/>
      <point x="310" y="912"/>
      <point x="393" y="912" type="curve" smooth="yes"/>
      <point x="523" y="912" type="line"/>
      <point x="427" y="389" type="line" smooth="yes"/>
      <point x="386" y="166"/>
      <point x="260" y="112"/>
      <point x="169" y="112" type="curve"/>
      <point x="169" y="0" type="line"/>
      <point x="530" y="0"/>
      <point x="576" y="93"/>
      <point x="598" y="322" type="curve" smooth="yes"/>
      <point x="655" y="912" type="line"/>
      <point x="1001" y="912" type="line"/>
      <point x="936" y="697"/>
      <point x="876" y="472"/>
      <point x="876" y="298" type="curve" smooth="yes"/>
      <point x="876" y="82"/>
      <point x="986" y="-25"/>
    </contour>
  </outline>
</glyph>
<glyph name="emdash" format="1">
  <advance width="1794"/>
  <unicode hex="2014"/>
  <outline>
    <contour>
      <point x="132" y="580" type="line"/>
      <point x="1660" y="580" type="line"/>
      <point x="1660" y="768" type="line"/>
      <point x="132" y="768" type="line"/>
    </contour>
  </outline>
</glyph>
<glyph name="quotedblright" format="1">
  <advance width="1049"/>
  <unicode hex="201D"/>
  <outline>
    <contour>
      <point x="147" y="1000" type="line"/>
      <point x="317" y="1000"/>
      <point x="449" y="1175"/>
      <point x="449" y="1350" type="curve" smooth="yes"/>
      <point x="449" y="1465"/>
      <point x="393" y="1552"/>
      <point x="312" y="1552" type="curve" smooth="yes"/>
      <point x="201" y="1552"/>
      <point x="152" y="1474"/>
      <point x="152" y="1417" type="curve" smooth="yes"/>
      <point x="152" y="1317"/>
      <point x="196" y="1267"/>
      <point x="284" y="1267" type="curve"/>
      <point x="284" y="1163"/>
      <point x="233" y="1068"/>
      <point x="147" y="1068" type="curve"/>
    </contour>
    <contour>
      <point x="626" y="1000" type="line"/>
      <point x="797" y="1000"/>
      <point x="926" y="1175"/>
      <point x="926" y="1350" type="curve" smooth="yes"/>
      <point x="926" y="1466"/>
      <point x="875" y="1552"/>
      <point x="792" y="1552" type="curve" smooth="yes"/>
      <point x="679" y="1552"/>
      <point x="631" y="1471"/>
      <point x="631" y="1417" type="curve" smooth="yes"/>
      <point x="631" y="1317"/>
      <point x="675" y="1267"/>
      <point x="764" y="1267" type="curve"/>
      <point x="764" y="1160"/>
      <point x="713" y="1068"/>
      <point x="626" y="1068" type="curve"/>
    </contour>
  </outline>
</glyph>
<glyph name="perthousand" format="1">
  <advance width="3136"/>
  <unicode hex="2030"/>
  <outline>
    <contour>
      <point x="2646" y="166" type="curve" smooth="yes"/>
      <point x="2370.20811096" y="166.0"/>
      <point x="2313.58285567" y="230.004415168"/>
      <point x="2301.98087579" y="484.332159175" type="curve" smooth="yes"/>
      <point x="2299.15357309" y="546.309642626"/>
      <point x="2299.0" y="619.589571625"/>
      <point x="2299" y="706" type="curve" smooth="yes"/>
      <point x="2299" y="958"/>
      <point x="2391" y="1020"/>
      <point x="2646" y="1020" type="curve" smooth="yes"/>
      <point x="2922.12407976" y="1020.0"/>
      <point x="2981.14550683" y="953.89710276"/>
      <point x="2993.66397096" y="699.610796338" type="curve" smooth="yes"/>
      <point x="2996.69588259" y="638.02387947"/>
      <point x="2997.0" y="565.398405433"/>
      <point x="2997" y="480" type="curve" smooth="yes"/>
      <point x="2997" y="234"/>
      <point x="2906" y="166"/>
    </contour>
    <contour>
      <point x="2629" y="298" type="curve" smooth="yes"/>
      <point x="2828" y="298"/>
      <point x="2842" y="313"/>
      <point x="2842" y="512" type="curve" smooth="yes"/>
      <point x="2842" y="657" type="line" smooth="yes"/>
      <point x="2842" y="886"/>
      <point x="2838" y="889"/>
      <point x="2646" y="889" type="curve" smooth="yes"/>
      <point x="2463" y="889"/>
      <point x="2447" y="888"/>
      <point x="2447" y="661" type="curve" smooth="yes"/>
      <point x="2447" y="604"/>
      <point x="2446" y="556"/>
      <point x="2446" y="516" type="curve" smooth="yes"/>
      <point x="2446" y="312"/>
      <point x="2460" y="298"/>
    </contour>
    <component base="percent"/>
  </outline>
</glyph>
<glyph name="guilsinglleft" format="1">
  <advance width="834"/>
  <unicode hex="2039"/>
  <outline>
    <contour>
      <point x="696" y="252" type="curve" smooth="yes"/>
      <point x="734" y="252"/>
      <point x="762" y="284"/>
      <point x="762" y="320" type="curve" smooth="yes"/>
      <point x="762" y="338"/>
      <point x="754" y="358"/>
      <point x="737" y="375" type="curve" smooth="yes"/>
      <point x="323" y="781" type="line"/>
      <point x="737" y="1187" type="line" smooth="yes"/>
      <point x="757" y="1206"/>
      <point x="762" y="1229"/>
      <point x="762" y="1242" type="curve" smooth="yes"/>
      <point x="762" y="1283"/>
      <point x="734" y="1315"/>
      <point x="696" y="1310" type="curve" smooth="yes"/>
      <point x="680" y="1315"/>
      <point x="664" y="1306"/>
      <point x="644" y="1290" type="curve" smooth="yes"/>
      <point x="142" y="899" type="line" smooth="yes"/>
      <point x="95" y="863"/>
      <point x="71" y="826"/>
      <point x="71" y="781" type="curve"/>
      <point x="71" y="741"/>
      <point x="93" y="701"/>
      <point x="142" y="663" type="curve" smooth="yes"/>
      <point x="644" y="272" type="line" smooth="yes"/>
      <point x="662" y="258"/>
      <point x="680" y="252"/>
    </contour>
  </outline>
</glyph>
<glyph name="guilsinglright" format="1">
  <advance width="834"/>
  <unicode hex="203A"/>
  <outline>
    <contour>
      <point x="137" y="252" type="curve" smooth="yes"/>
      <point x="153" y="252"/>
      <point x="171" y="258"/>
      <point x="189" y="272" type="curve" smooth="yes"/>
      <point x="691" y="663" type="line" smooth="yes"/>
      <point x="740" y="701"/>
      <point x="762" y="741"/>
      <point x="762" y="781" type="curve"/>
      <point x="762" y="826"/>
      <point x="738" y="863"/>
      <point x="691" y="899" type="curve" smooth="yes"/>
      <point x="189" y="1290" type="line" smooth="yes"/>
      <point x="169" y="1306"/>
      <point x="153" y="1315"/>
      <point x="137" y="1310" type="curve" smooth="yes"/>
      <point x="99" y="1315"/>
      <point x="71" y="1283"/>
      <point x="71" y="1242" type="curve" smooth="yes"/>
      <point x="71" y="1229"/>
      <point x="76" y="1206"/>
      <point x="96" y="1187" type="curve" smooth="yes"/>
      <point x="510" y="781" type="line"/>
      <point x="96" y="375" type="line" smooth="yes"/>
      <point x="79" y="358"/>
      <point x="71" y="338"/>
      <point x="71" y="320" type="curve" smooth="yes"/>
      <point x="71" y="284"/>
      <point x="99" y="252"/>
    </contour>
  </outline>
</glyph>
<glyph name="fraction" format="1">
  <advance width="992"/>
  <unicode hex="2044"/>
  <outline>
    <contour>
      <point x="105" y="0" type="line"/>
      <point x="245" y="0" type="line"/>
      <point x="894" y="1490" type="line"/>
      <point x="751" y="1490" type="line"/>
    </contour>
  </outline>
</glyph>
<glyph name="foursuperior" format="1">
  <advance width="1204"/>
  <unicode hex="2074"/>
  <outline>
    <contour>
      <point x="786" y="388" type="line"/>
      <point x="974" y="388" type="line"/>
      <point x="974" y="1078" type="line"/>
      <point x="786" y="1078" type="line"/>
      <point x="786" y="789" type="line"/>
      <point x="405" y="789" type="line"/>
      <point x="405" y="803" type="line"/>
      <point x="745" y="1490" type="line"/>
      <point x="570" y="1490" type="line"/>
      <point x="200" y="790" type="line"/>
      <point x="200" y="639" type="line"/>
      <point x="786" y="639" type="line"/>
    </contour>
  </outline>
</glyph>
<glyph name="Euro" format="1">
  <advance width="1357"/>
  <unicode hex="20AC"/>
  <outline>
    <contour>
      <point x="772" y="-24" type="curve" smooth="yes"/>
      <point x="1099" y="-24"/>
      <point x="1214" y="48"/>
      <point x="1249" y="331" type="curve" smooth="yes"/>
      <point x="1253" y="363"/>
      <point x="1256" y="398"/>
      <point x="1258" y="436" type="curve"/>
      <point x="1084" y="462" type="line"/>
      <point x="1074" y="335"/>
      <point x="1074" y="252"/>
      <point x="1034" y="201" type="curve" smooth="yes"/>
      <point x="995" y="150"/>
      <point x="915" y="130"/>
      <point x="743" y="130" type="curve" smooth="yes"/>
      <point x="444" y="130"/>
      <point x="363" y="184"/>
      <point x="356" y="289" type="curve" smooth="yes"/>
      <point x="350" y="374"/>
      <point x="348" y="460"/>
      <point x="347" y="547" type="curve"/>
      <point x="887" y="547" type="line"/>
      <point x="907" y="648" type="line"/>
      <point x="347" y="648" type="line"/>
      <point x="347" y="827" type="line"/>
      <point x="887" y="827" type="line"/>
      <point x="907" y="928" type="line"/>
      <point x="348" y="928" type="line"/>
      <point x="350" y="1021"/>
      <point x="352" y="1112"/>
      <point x="356" y="1203" type="curve" smooth="yes"/>
      <point x="363" y="1347"/>
      <point x="490" y="1360"/>
      <point x="742" y="1360" type="curve" smooth="yes"/>
      <point x="881" y="1360"/>
      <point x="958" y="1359"/>
      <point x="1004" y="1319" type="curve" smooth="yes"/>
      <point x="1051" y="1279"/>
      <point x="1067" y="1200"/>
      <point x="1082" y="1044" type="curve"/>
      <point x="1257" y="1078" type="line"/>
      <point x="1255" y="1105"/>
      <point x="1252" y="1130"/>
      <point x="1249" y="1154" type="curve" smooth="yes"/>
      <point x="1209" y="1454"/>
      <point x="1073" y="1513"/>
      <point x="754" y="1513" type="curve" smooth="yes"/>
      <point x="297" y="1513"/>
      <point x="180" y="1438"/>
      <point x="152" y="1068" type="curve" smooth="yes"/>
      <point x="149" y="1025"/>
      <point x="147" y="979"/>
      <point x="146" y="928" type="curve"/>
      <point x="-7" y="928" type="line"/>
      <point x="-27" y="827" type="line"/>
      <point x="144" y="827" type="line"/>
      <point x="144" y="648" type="line"/>
      <point x="-7" y="648" type="line"/>
      <point x="-27" y="547" type="line"/>
      <point x="146" y="547" type="line"/>
      <point x="148" y="507"/>
      <point x="150" y="470"/>
      <point x="153" y="435" type="curve" smooth="yes"/>
      <point x="182" y="91"/>
      <point x="301" y="-24"/>
    </contour>
  </outline>
</glyph>
<glyph name="uni2113" format="1">
  <advance width="1056"/>
  <unicode hex="2113"/>
  <outline>
    <contour>
      <point x="563" y="-15" type="curve" smooth="yes"/>
      <point x="643" y="-21.6667"/>
      <point x="822.824" y="0"/>
      <point x="824" y="0" type="curve"/>
      <point x="824" y="137" type="line"/>
      <point x="756" y="129"/>
      <point x="702" y="125"/>
      <point x="658" y="125" type="curve" smooth="yes"/>
      <point x="501" y="125"/>
      <point x="484" y="174"/>
      <point x="484" y="258" type="curve" smooth="yes"/>
      <point x="484" y="632" type="line"/>
      <point x="833" y="842"/>
      <point x="1052" y="1055"/>
      <point x="1033" y="1342" type="curve" smooth="yes"/>
      <point x="1020" y="1542"/>
      <point x="876" y="1655"/>
      <point x="705" y="1655" type="curve" smooth="yes"/>
      <point x="505" y="1655"/>
      <point x="288" y="1522"/>
      <point x="288" y="1071" type="curve" smooth="yes"/>
      <point x="288" y="646" type="line"/>
      <point x="121" y="527" type="line"/>
      <point x="121" y="395" type="line"/>
      <point x="288" y="516" type="line"/>
      <point x="288" y="239" type="line" smooth="yes"/>
      <point x="288" y="17"/>
      <point x="427" y="-9"/>
    </contour>
    <contour>
      <point x="486" y="782" type="curve"/>
      <point x="486" y="1115" type="line" smooth="yes"/>
      <point x="486" y="1436"/>
      <point x="599" y="1489"/>
      <point x="700" y="1489" type="curve" smooth="yes"/>
      <point x="792" y="1489"/>
      <point x="847" y="1448"/>
      <point x="858" y="1332" type="curve" smooth="yes"/>
      <point x="879" y="1107"/>
      <point x="760" y="958"/>
    </contour>
  </outline>
</glyph>
<glyph name="partialdiff" format="1">
  <advance width="1188"/>
  <unicode hex="2202"/>
  <outline>
    <contour>
      <point x="541" y="-24" type="curve" smooth="yes"/>
      <point x="984" y="-24"/>
      <point x="1079" y="395"/>
      <point x="1079" y="674" type="curve" smooth="yes"/>
      <point x="1079" y="1066"/>
      <point x="901" y="1432"/>
      <point x="339" y="1432" type="curve"/>
      <point x="324" y="1286" type="line"/>
      <point x="712" y="1286"/>
      <point x="866" y="1008"/>
      <point x="871" y="774" type="curve"/>
      <point x="818" y="864"/>
      <point x="724" y="908"/>
      <point x="617" y="908" type="curve" smooth="yes"/>
      <point x="276" y="908"/>
      <point x="124" y="607"/>
      <point x="124" y="395" type="curve" smooth="yes"/>
      <point x="124" y="170"/>
      <point x="262" y="-24"/>
    </contour>
    <contour>
      <point x="571" y="146" type="curve" smooth="yes"/>
      <point x="445" y="146"/>
      <point x="346" y="233"/>
      <point x="346" y="397" type="curve" smooth="yes"/>
      <point x="346" y="517"/>
      <point x="415" y="736"/>
      <point x="620" y="736" type="curve" smooth="yes"/>
      <point x="714" y="736"/>
      <point x="776" y="689"/>
      <point x="859" y="588" type="curve"/>
      <point x="860" y="579"/>
      <point x="860" y="570"/>
      <point x="860" y="561" type="curve" smooth="yes"/>
      <point x="860" y="446"/>
      <point x="804" y="146"/>
    </contour>
  </outline>
</glyph>
<glyph name="product" format="1">
  <advance width="1369"/>
  <unicode hex="220F"/>
  <outline>
    <contour>
      <point x="365" y="1318" type="line"/>
      <point x="1004" y="1318" type="line"/>
      <point x="1004" y="0" type="line"/>
      <point x="1235" y="0" type="line"/>
      <point x="1235" y="1490" type="line"/>
      <point x="134" y="1490" type="line"/>
      <point x="134" y="0" type="line"/>
      <point x="365" y="0" type="line"/>
    </contour>
  </outline>
</glyph>
<glyph name="uni2219" format="1">
  <advance width="600"/>
  <unicode hex="2219"/>
  <outline>
    <contour>
      <point x="321" y="528" type="curve" smooth="yes"/>
      <point x="409" y="528"/>
      <point x="461" y="594"/>
      <point x="461" y="682" type="curve" smooth="yes"/>
      <point x="461" y="769"/>
      <point x="403" y="836"/>
      <point x="321" y="836" type="curve" smooth="yes"/>
      <point x="233" y="836"/>
      <point x="181" y="771"/>
      <point x="181" y="682" type="curve" smooth="yes"/>
      <point x="181" y="596"/>
      <point x="240" y="528"/>
    </contour>
  </outline>
</glyph>
